<svg width="24" height="24" fill="none" xmlns="http://www.w3.org/2000/svg"><g id="vuesax/outline/call"><g id="call"><path id="Vector" d="M20 17.064c0 .288-.064.584-.2.872-.137.288-.313.56-.545.816a3.612 3.612 0 01-1.314.944c-.48.2-1.002.304-1.562.304-.818 0-1.691-.192-2.612-.584a14.08 14.08 0 01-2.756-1.584 23.024 23.024 0 01-2.628-2.24 22.741 22.741 0 01-2.236-2.616c-.657-.912-1.186-1.824-1.57-2.728C4.192 9.336 4 8.464 4 7.632c0-.544.096-1.064.288-1.544.193-.488.497-.936.922-1.336C5.723 4.248 6.283 4 6.876 4c.225 0 .449.048.65.144.208.096.392.24.536.448l1.859 2.616c.144.2.248.384.32.56.072.168.113.336.113.488 0 .192-.057.384-.169.568a2.723 2.723 0 01-.448.568l-.61.632a.428.428 0 00-.128.32c0 .064.009.12.025.184.024.064.048.112.064.16.144.264.392.608.745 1.024.36.416.745.84 1.162 1.264.432.424.849.816 1.273 1.176.417.352.761.592 1.034.736.04.016.088.04.144.064a.554.554 0 00.2.032c.137 0 .24-.048.329-.136l.609-.6c.2-.2.393-.352.577-.448.184-.112.368-.168.569-.168.152 0 .312.032.488.104a3.1 3.1 0 01.561.312l2.652 1.88a1.2 1.2 0 01.44.512c.08.2.129.4.129.624z" stroke="#017970" stroke-width="1.5" stroke-miterlimit="10"/></g></g></svg>