<svg width="231" height="250" fill="none" xmlns="http://www.w3.org/2000/svg"><g id="russian-gerb 2"><g id="Group" fill-rule="evenodd" clip-rule="evenodd" fill="#A3A5A7"><path id="Fill-1" d="M141.971 165.353c0 6.841-2.955 10.128-8.985 10.128h-9.102c-4.796 0-8.106 3.546-9.338 7.766-1.232-4.22-4.542-7.766-9.338-7.766h-9.102c-6.03 0-8.986-3.287-8.986-10.128l-.002-55.611h54.855l-.002 55.611zm-6.507 51.538c.933 1.705 1.486 5.171-1.282 5.511-1.553-4.183-3.501-6.608-5.959-9.881-1.623-2.16-4.902-5.85-6.303-8.18 3.912 4.575 11.666 9.115 13.544 12.55zm1.458 11.265c1.315-.161 3.134-.674 4.107-1.984 1.648 2.78-.629 4.774-3.93 4.791.049-1.168.005-1.514-.177-2.807zm-14.978 9.648c.534-3.909-.537-13.022-2.158-19.093-.921-3.444-4.185-16.518-3.195-18.91.638 5.081 2.768 13.06 5.706 19.591 2.105 4.678 5.157 15.61-.353 18.412zm-14.796 0c-5.51-2.802-2.457-13.734-.353-18.412 2.938-6.531 5.067-14.51 5.706-19.591.989 2.392-2.275 15.466-3.195 18.91-1.622 6.071-2.692 15.184-2.158 19.093zM94.91 222.402c-2.769-.34-2.215-3.806-1.282-5.511 1.878-3.435 9.632-7.975 13.544-12.55-1.401 2.33-4.681 6.02-6.303 8.18-2.459 3.273-4.406 5.698-5.959 9.881zm-2.917 8.561c-3.3-.017-5.578-2.011-3.93-4.791.973 1.31 2.792 1.823 4.106 1.984-.181 1.293-.225 1.639-.176 2.807zm-30.905-26.296c-2.245.358-6.296-.989-7.255-4.116-.956-3.119-3.568-4.081-5.48-2.186-.61-.371-2.077-.658-2.634.268 0 0-.676-1.443-1.391-2.069.505-1.625.031-3.51-1.388-4.138-.184-3.088-2.05-3.14-2.707-4.24-.39-.651-.322-1.389.604-1.622-.42-.524-1.202-.628-1.445-.628.356-1.331-.132-2.879-1.867-3.508l-13.247-27.394c2.234.229 5.74 1.564 8.132-.555.912-.808 12.082-14.706 13.632-15.968-.506 1.175-7.623 10.102-10.823 15.214-2.41 3.852.972 6.318 1.451 8.648 2.508-.805 5.943.581 7.842-2.463 1.818-2.913 7.208-13.443 9.206-16.322-.79 2.199-6.471 14.27-6.845 15.352-1.366 3.952 2.06 4.676 3.484 7.362 2.121-1.359 5.85-.24 7.28-4.107.99-2.68 3.228-11.749 4.459-14.1-.152 2.589-.955 6.19-1.532 10.296-.547 3.895 3.228 3.873 5.34 6.045 1.827-1.606 5.246-1.17 5.842-4.817.508-3.115.608-10.843.608-10.843.578.4.868.518 1.394 1.041 1.367-1.415 4.04-1.414 4.994-3.323.33.164.552.418.918.614 2.972 4.96 3.183 14.382-.916 17.811 1.234.026 2.627-.157 3.56-.619-1.796 3.849-5.901 5.092-10.57 3.331.165.941.29 1.467.703 2.108-5.103.755-7.275 2.691-9.163 5.964-2.46 4.265.222 9.918-.528 12.105-.514 1.498-2.255 2.794-4.978 1.686 1.326 5.721 8.57 4.966 10.488 1.825.7 2.631.038 5.709-1.339 6.89 2.258.152 4.137-.819 5.343-2.507.253.598.321 1.174.421 1.819 1.225-.578 2.007-1.221 2.574-1.995.176.682.374 2.198.07 3.467-1.01.626-2.09 1.193-3.71 2.012-2.704 1.367-7.584 3.193-10.527 3.662zm-39.703-57.205c-.026-.117-.05-.24-.074-.366a3.22 3.22 0 00.137-.547 14.37 14.37 0 001.445-.281c2.955-.735 7.798-5.297 11.95-8.019-1.366 1.413-7.475 5.837-10.152 8.396-2.55 2.438-1.393 4.905-.997 7.182l-1.616-3.342c.832-1.139.359-2.604-.693-3.023zm-7.773-3.988l-1.339-.78c.443-.513 1.04-.503 1.575-.276.043.438-.036.79-.236 1.056zm-2.564-5.47a4.51 4.51 0 01-.278.339c-.851-.165-.81-1.07-.657-1.828.341-.057.611-.139.89-.443.062-.002.205.155.205.155l-.486.216c.142.535.231 1.044.326 1.561zm11.279-3.654c0-.081-.003-.161-.007-.241a45.975 45.975 0 002.149-.7 57.39 57.39 0 00-2.142.941zm-4.802.8a1.01 1.01 0 01-.108.247 4.56 4.56 0 01-.439-.021l-.121-.158c.218-.019.44-.041.668-.068zm74.298-82.246h-.006c7.385-1.517 14.891-5.74 18.262-9.096a78.32 78.32 0 004.418.12 79.26 79.26 0 004.512-.124c3.369 3.356 10.878 7.583 18.267 9.1h-.007c-4.273 0-11.786-.344-12.679-1.406.157 2.685 5.94 5.773 9.723 6.558-3.1.315-6.001-.019-8.41-1.151 1.315 1.884 2.826 3.422 5.337 4.227-2.646 3.216-7.986 5.27-13.344 4.753 1.275 1.634 3.655 2.589 5.852 2.32-4.346 6.797-8.299 14.305-9.202 24.623-.903-10.318-4.856-17.826-9.202-24.624 2.197.27 4.577-.685 5.852-2.32-5.358.518-10.699-1.536-13.345-4.752 2.511-.805 4.023-2.343 5.337-4.227-2.408 1.132-5.31 1.466-8.41 1.151 3.784-.785 9.567-3.873 9.723-6.558-.892 1.062-8.405 1.407-12.678 1.407zM228.564 103.8c-2.926-1.818-7.607-2.255-12.18-1.953 7.297-2.44 12.363-7.979 12.708-12.862-3.974-1.131-7.981-.577-11.475.232 3.706-2.695 9.551-7.58 8.866-14.731-3.48-.823-9.837 1.56-12.628 2.707 8.668-4.821 11.751-16.048 7.178-22.496-2.654 1.53-14.889 14.019-16.849 15.4 6.232-7.198 9.203-12.308 10.967-17.192 1.912-5.297 2.111-14.472-4.42-17.624-3.066 7.096-13.955 25.233-20.07 32.712-.557-.532-1.112-1.274-1.891-1.472-1.491 4.637-5.851 10.743-9.696 13.597-.199-.395-.497-1.484-1.275-2.48-4.107 6.173-14.825 14.555-18.302 19.678-2.628 3.874-2.733 7.433 1.035 11.024 1.499 1.428 4.433 4.156 1.909 7.821-4.046 5.876-13.038 5.653-15.652.601 5.712-.647 7.463-7.679 3.875-11.757-1.514 2.751-4.778 3.987-8.104 2.633-2.092-.861-3.694-1.988-4.581-2.983 4.608 1.562 8.647-1.219 8.107-5.965-3.721 3.222-7.549.123-8.283-.7-2.434-2.734-3.07-5.834-2.114-10.526.835-4.102 5.029-10.608 7.905-12.792.315.472.973 1.287 2.314 1.038.882-.164 2.267-.944 3.171-1.228 2.795-.878 5.613-.141 7.317.902 3.228 1.977 2.944 4.083 2.899 5.767 4.931-2.833 3.146-7.338-3.215-9.117 4.416.052 7.974 3.945 8.856 4.553 2.409 1.662 5.902 1.3 7.929.351 3.876-1.816 4.77-6.318 3.699-7.367-.401 1.625-1.706 3.07-3.875 3.332-3.386.406-6.607-1.025-9.162-2.105-2.087-.888-5.607-1.539-8.025-1.382 4.362-2.474 11.25-2.198 13.665 1.556 1.423-1.19 2.388-2.273 2.817-4.735 1.139-6.453-3.838-9.824-9.338-9.824.058-1.548-1.046-2.334-2.467-1.93.017-.6-.187-1.106-.57-1.373l.387-.03c5.493-.435 10.804-2.188 13.574-5.087 4.961-5.197-2.879-11.894-.087-17.108 2.629 1.3 4.639 2.716 8.444 3.301.334.735.651 2.338.805 3.106 1.205 5.92-4.624 6.842-3.172 13.157.648 2.816 2.836 3.689 3.524 7.017.061 0 .334 2.476-1.769 4.467 4.784.05 7.258-3.859 5.73-7.644-.598-1.482-2.26-2.984-2.199-4.719 2.41 3.305 4.543 3.053 8.281 1.931 1.699-.51 1.857 1.846.858 3.678 2.524-1.414 3.212-3.935 3.194-5.081-.04-2.614-2.015-3.78-3.983-3.347-1.139.251-3.417 1.675-3.593-.513-.298-3.706 5.489-3.505 4.277-9.537-.631-3.141-3.996-4.659-9.148-5.394-.631-.469-1.859-1.719-2.529-2.787-3.043-4.853-5.988-6.057-7.752-5.087-2.101 1.154-3.128 2.06-4.934 2.982-1.316.669-2.842 1.016-3.7 2.105-2.232 2.836-.183 7.203 1.083 9.878.755 1.584 2.652 5.25 1.863 7.822-.981 3.196-6.288 5.2-9.523 5.92a11.43 11.43 0 01-.563.109L158.672 51c.973-1.698 1.807-3.683 2.465-5.45 2.127-5.71-1.067-8.138-5.925-9.176-.56-.386-1.227-.5-2.059-.243l-.113.035-.118.84-.646-.09.064-1.155-.152.019a2.487 2.487 0 00.177-3.37h.751l-.276-.308c-.188-.21-.497-.545-.773-.896a5.23 5.23 0 01-.372-.527c.163.097.343.226.528.37.352.275.688.581.9.769l.308.274v-5.35l-.308.274c-.212.188-.549.495-.901.77a5.29 5.29 0 01-.529.37 5.43 5.43 0 01.371-.525c.276-.35.584-.685.773-.896l.275-.307h-5.373l.275.307c.19.212.498.546.774.896.147.185.275.366.373.529a5.353 5.353 0 01-.53-.371c-.351-.274-.687-.58-.899-.77l-.309-.274v5.35l.309-.274c.213-.189.549-.496.9-.77a5.39 5.39 0 01.53-.372 5.18 5.18 0 01-.371.528c-.276.35-.584.683-.774.895l-.275.308h.748a2.486 2.486 0 00.172 3.365l-.114-.014.064 1.155-.647.09-.117-.84-.113-.035c-.832-.258-1.499-.143-2.058.243-4.859 1.038-8.053 3.467-5.926 9.175.659 1.77 1.494 3.759 2.469 5.459l.005.793c-4.807-1.532-13.603-6.822-15.9-10.049a10.29 10.29 0 00-.675-.806l.035-3.482c1.795-2.76 3.313-6.311 4.467-9.41 3.081-8.27-1.479-11.765-8.663-13.286-.765-.546-1.678-.722-2.865-.356l-.19 1.35-1.485-.208.091-1.642c-.294.036-.573.064-.839.086a3.436 3.436 0 00.559-5.654h1.156c-.569-.636-1.847-2.004-2.031-2.831.83.183 2.206 1.458 2.845 2.025V.81c-.638.567-2.013 1.84-2.843 2.023.184-.827 1.464-2.197 2.034-2.833h-6.757c.566.633 1.848 2.008 2.031 2.83-.826-.182-2.209-1.46-2.845-2.024v6.728c.636-.565 2.017-1.84 2.843-2.023-.183.823-1.467 2.2-2.034 2.833h1.161a3.427 3.427 0 00-1.235 2.636c0 1.304.729 2.44 1.803 3.022a21.653 21.653 0 01-.898-.09l.091 1.642-1.486.208-.189-1.35c-1.187-.366-2.101-.19-2.866.356-7.183 1.521-11.743 5.015-8.662 13.287 1.154 3.098 2.672 6.649 4.466 9.409l.039 3.546c-.158.17-.358.407-.616.742-2.297 3.228-11.093 8.517-15.9 10.05l.004-.794c.975-1.7 1.81-3.689 2.47-5.459 2.126-5.708-1.067-8.137-5.925-9.175-.56-.386-1.227-.5-2.06-.243l-.111.035-.119.84-.646-.09.064-1.155-.114.014a2.487 2.487 0 00.172-3.365h.748l-.275-.308c-.19-.212-.498-.545-.773-.895a5.143 5.143 0 01-.373-.528c.164.098.345.226.531.372.351.274.687.581.9.77l.309.274v-5.35l-.31.274c-.212.19-.547.496-.898.77a5.318 5.318 0 01-.53.37 5.2 5.2 0 01.373-.528c.276-.35.584-.684.773-.896l.276-.307H75.98l.275.307c.189.211.496.546.772.896.146.184.274.364.372.526a5.325 5.325 0 01-.53-.37c-.351-.276-.688-.583-.9-.77l-.309-.275v5.35l.31-.274c.212-.188.547-.494.899-.77a5.32 5.32 0 01.528-.369 5.225 5.225 0 01-.372.527c-.276.35-.584.685-.773.896l-.276.308h.751a2.482 2.482 0 00-.572 1.589c0 .697.287 1.328.75 1.78l-.153-.018.064 1.155-.647.09-.118-.84-.112-.035c-.832-.258-1.5-.143-2.059.243-4.858 1.038-8.052 3.467-5.925 9.175.658 1.768 1.492 3.753 2.465 5.451l-.005 1.248a11.935 11.935 0 01-.563-.109c-3.235-.72-8.542-2.724-9.523-5.92-.79-2.572 1.108-6.238 1.863-7.822 1.266-2.675 3.315-7.042 1.082-9.878-.857-1.09-2.383-1.436-3.7-2.105-1.805-.921-2.832-1.828-4.933-2.982-1.765-.97-4.709.234-7.752 5.087-.67 1.069-1.899 2.318-2.529 2.788-5.153.734-8.517 2.252-9.148 5.393-1.212 6.032 4.575 5.831 4.277 9.537-.176 2.188-2.454.764-3.594.513-1.967-.433-3.943.733-3.983 3.347-.017 1.145.671 3.667 3.195 5.08-1-1.831-.841-4.187.858-3.677 3.737 1.122 5.871 1.374 8.281-1.93.061 1.734-1.602 3.236-2.2 4.718-1.528 3.785.947 7.694 5.73 7.644-2.102-1.991-1.829-4.467-1.768-4.467.688-3.328 2.876-4.201 3.523-7.017 1.453-6.315-4.377-7.237-3.17-13.157.154-.768.47-2.371.803-3.106 3.806-.585 5.816-2 8.445-3.3 2.792 5.213-5.048 11.91-.087 17.107 2.77 2.9 8.08 4.652 13.574 5.087l.386.03c-.382.267-.586.773-.57 1.373-1.42-.404-2.525.382-2.466 1.93-5.5 0-10.478 3.371-9.338 9.824.43 2.462 1.394 3.546 2.817 4.736 2.414-3.755 9.303-4.031 13.665-1.557-2.418-.157-5.938.494-8.025 1.382-2.555 1.08-5.776 2.511-9.162 2.105-2.17-.263-3.474-1.707-3.875-3.332-1.071 1.05-.177 5.551 3.699 7.367 2.026.95 5.52 1.31 7.928-.35.883-.61 4.44-4.502 8.857-4.554-6.362 1.78-8.146 6.284-3.215 9.117-.045-1.684-.33-3.79 2.9-5.767 1.703-1.043 4.52-1.78 7.316-.902.904.284 2.289 1.064 3.171 1.228 1.341.25 1.998-.566 2.313-1.038 2.877 2.184 7.07 8.69 7.906 12.792.956 4.692.32 7.792-2.114 10.526-.734.823-4.561 3.922-8.283.7-.54 4.746 3.499 7.527 8.107 5.965-.887.995-2.489 2.122-4.581 2.983-3.326 1.354-6.59.118-8.104-2.633-3.588 4.078-1.838 11.11 3.875 11.757-2.615 5.052-11.606 5.275-15.653-.601-2.523-3.665.41-6.393 1.91-7.821 3.768-3.591 3.663-7.15 1.034-11.024-3.476-5.123-14.194-13.505-18.3-19.678-.78.996-1.077 2.085-1.276 2.48-3.845-2.854-8.205-8.96-9.696-13.597-.78.198-1.335.94-1.89 1.472-6.116-7.48-17.006-25.616-20.072-32.712-6.53 3.152-6.331 12.327-4.419 17.624 1.764 4.884 4.734 9.994 10.967 17.192-1.96-1.381-14.195-13.87-16.85-15.4-4.572 6.448-1.489 17.675 7.179 22.496-2.79-1.148-9.148-3.53-12.628-2.707-.684 7.151 5.16 12.036 8.866 14.731-3.494-.809-7.5-1.363-11.475-.231.344 4.882 5.41 10.422 12.708 12.861-4.573-.302-9.255.135-12.18 1.953.658 5.028 6.29 9.47 13.385 10.487-4.705.51-8.926 2.602-11.006 5.372 2.496 3.267 6.282 5.882 12.024 5.759-1.382.464-2.904 1.387-4.241 2.624a.51.51 0 10-.804.629c-.603.407-.915.877-.976 1.379a10.782 10.782 0 00-1.326 2.437c.125.099.252.196.38.292-.036.444.078.936.413 1.443-.25.287-.475.666-.532 1.106l-3.367-1.451c-.149.575-.373 4.693 1.972 7.137 1.266 1.321 2.535 1.131 2.184 1.533l3.615 2.308c.718 1.387 2.02 1.297 2.946.902a3.144 3.144 0 002.339 3.331c-.29 1.227.143 2.047 1.745 2.526l13.751 33.066c-.605 1.518-.026 2.906 1.236 3.452-.368.422-.605.71-.579 1.521.537-.312 1.288-.427 1.683.629.296.79-1.157 3.245.998 5.024-.21 1.518.526 3.089 2.135 3.674.07.831.693 3.397.87 4.355-1.01 1.281-3.273 3.406-2.952 5.686.22 1.56.894 2.146 2.22 2.574-.59 2.922 1.092 4.283 3.668 4.386-.105 2.2 2.025 2.881 3.339 3.038 1.104.941 1.708 1.361 3.128 1.989-1.262 1.622-.316 3.611 1.997 4.292.263.942 1.052 1.78 2.366 1.989.789 1.309 2.235 1.387 2.997.995.608-.314 1.472-1.78.683-3.141.526-.628.258-1.789-.114-2.622.883-1.499.14-3.258-.901-3.767.14-.805-.28-2.008-.51-2.838 1.783-1.086 4.225-2.585 5.054-3.168 4.739-3.358 9.85-6.185 15.966-6.695 1.49-.124 4.204-.205 5.817-.071 2.534.21 5.772.941 7.856-.595.542-.407.93-.987.814-1.702-.243-1.492-1.928-2.787-2.448-4.145-.15-.392-.408-.993-.653-1.55 1.689.323 3.32.053 4.293-.358 1.102-.471 3.546-2.358 3.525-5.089-2.048.953-6.965 2.291-7.575-2.736-.537-4.418 3.406-8.078 9.336-6.56 4.253 1.089 10.241 9.973 4.757 13.684-2.76 1.867-6.841 3.625-6.345 8.42 1.765-2.213 4.178-3.242 7.313-2.964-4.56 3.35-8.118 3.687-12.72 6.297-4.152 2.355-7.286 6.362-10.448 6.492-2.554.104-3.915-2.86-1.587-5.089-2.417-.455-5.614 1.306-6.517 3.86-1.228 3.454-.206 6.038 1.94 7.37-2.947 1.563-5.161 4.687-4.055 9.121.878 3.517 4.592 3.544 3.172 8.067 1.986-.573 3.364-1.9 3.876-3.857.325-1.272.502-2.846 1.232-3.509-.214 2.816 1.287 6.879 5.121 8.672 2.539 1.187 6.533 1.757 9.68-1.478 1.173 3.667 5.5 6.769 9.867 6.665 2.031-.049 3.987-.855 5.462-1.755 1.076 2.608 3.75 5.261 6.519 6.667 2.769-1.406 5.442-4.059 6.519-6.667 1.475.9 3.43 1.706 5.462 1.755 4.366.104 8.693-2.998 9.866-6.665 3.148 3.235 7.143 2.665 9.681 1.478 3.833-1.793 5.335-5.856 5.121-8.672.729.663.907 2.237 1.232 3.509.512 1.957 1.889 3.284 3.876 3.857-1.421-4.523 2.294-4.55 3.172-8.067 1.106-4.434-1.108-7.558-4.054-9.121 2.145-1.332 3.167-3.916 1.939-7.37-.903-2.554-4.1-4.315-6.517-3.86 2.328 2.229.967 5.193-1.588 5.089-3.161-.13-6.294-4.137-10.448-6.492-4.601-2.61-8.159-2.947-12.719-6.297 3.135-.278 5.548.751 7.313 2.964.496-4.795-3.586-6.553-6.346-8.42-5.483-3.711.505-12.595 4.758-13.684 5.93-1.518 9.872 2.142 9.336 6.56-.61 5.027-5.527 3.689-7.575 2.736-.021 2.731 2.423 4.618 3.525 5.089 1.149.485 3.217.776 5.212.12-.036.461-.067.836-.085.996-.482 4.261-2.693 4.691-1.876 6.414 1.106 1.341 8.364 1.089 10.501 1.414 3.418.505 6.427 1.776 9.784 2.463 3.671.747 7.658.769 11.031 2.132 2.165.875 4.621 2.67 6.663 3.791 3.234.445 2.761 1.753 4.7 1.812 1.924.057 2.661-1.603 4.948-2.257 1.619-.463 3.559.225 5.204-.209 1.215-.33 1.659-1.561 2.708-2.199 1.386-.852 3.213-.84 4.495-1.91.596-.497.748-1.469.694-2.228a15.072 15.072 0 005.49-7.339c.617-.125 1.158-.621 1.184-1.376a1.51 1.51 0 00-.036-.281c.646-.473 1.075-1.214 1.091-2.139a3.185 3.185 0 00-1.108-2.286c.025-.099.039-.203.044-.313a1.55 1.55 0 00-.604-1.17c-1.037-5.71-5.313-10.298-10.866-11.808-.026-.065-.056-.128-.061-.191l-.087-.096a1.586 1.586 0 00-.355-.395c-.707-.794-1.684-1.949-1.851-2.704.937.208 2.49 1.646 3.212 2.286v-7.594c-.721.639-2.273 2.077-3.209 2.283.208-.934 1.652-2.48 2.295-3.198h-7.627c.639.714 2.087 2.267 2.293 3.196-.933-.206-2.494-1.649-3.212-2.286v7.594c.718-.637 2.277-2.078 3.209-2.283-.206.929-1.655 2.483-2.295 3.197l.251.056c-5.782 1.347-10.285 6.005-11.383 11.855a1.564 1.564 0 00-.725 1.258c.003.108.018.212.042.309-.662.571-1.091 1.392-1.107 2.307.032.907.454 1.645 1.092 2.118a1.481 1.481 0 00-.036.285c.028.802.637 1.309 1.295 1.394.252.73.56 1.434.917 2.108-.435 2.037-3.049 3.331-3.637 3.409-4.651.617-9.9-1.355-14.565-3.109-2.209-.83-4.949-1.788-6.384-3.816-.235-.332-.507-.968-.737-1.809a8.555 8.555 0 01.228-1.906c.568.774 1.35 1.417 2.574 1.995.1-.645.169-1.221.421-1.819 1.206 1.688 3.086 2.659 5.344 2.507-1.378-1.181-2.039-4.259-1.339-6.89 1.918 3.141 9.162 3.896 10.488-1.825-2.724 1.108-4.464-.188-4.978-1.686-.75-2.187 1.931-7.84-.529-12.105-1.887-3.273-4.059-5.209-9.162-5.964.413-.641.538-1.167.703-2.108-4.669 1.761-8.774.518-10.569-3.331.932.462 2.325.645 3.559.619-4.099-3.429-3.889-12.851-.916-17.811.366-.196.588-.45.918-.614.954 1.909 3.626 1.908 4.994 3.323.526-.523.816-.641 1.394-1.041 0 0 .1 7.728.608 10.843.596 3.647 4.015 3.211 5.842 4.817 2.111-2.172 5.887-2.15 5.34-6.045-.577-4.106-1.38-7.707-1.532-10.296 1.231 2.351 3.468 11.42 4.459 14.1 1.43 3.867 5.158 2.748 7.279 4.107 1.426-2.686 4.851-3.41 3.484-7.362-.373-1.082-6.055-13.153-6.844-15.352 1.998 2.879 7.387 13.409 9.206 16.322 1.899 3.044 5.333 1.658 7.842 2.463.479-2.33 3.862-4.796 1.451-8.648-3.2-5.112-10.318-14.039-10.823-15.214 1.55 1.262 12.72 15.16 13.632 15.968 2.567 2.274 6.417.569 8.602.524-.009-2.59 2.113-5.493-.883-8.358-2.677-2.559-8.786-6.983-10.153-8.396 4.153 2.722 8.996 7.284 11.951 8.019 5.072 1.261 6.845-.758 8.815-1.528-1.656-4.631.444-6.813-10.391-11.331 9.476 3.35 13.582 1.689 16.885-.923-1.297-3.411-4.6-6.146-7.346-7.069 5.741.123 9.527-2.492 12.023-5.759-2.08-2.77-6.301-4.862-11.006-5.372 7.095-1.017 12.727-5.459 13.385-10.487z"/><path id="Fill-3" d="M115.236 150.324c0-.301.828-.306 1.093-.399l.175.427c.589 1.433-.26 2.855.349 3.403.474.118.707.013 1.059.026l.754 1.837s1.894 4.857 3.455 8.194a.878.878 0 01-.095.117l.09.623c-.237 0-.177.054-.353-.176 0 .217-.219.17-.46.044-.015.018-.149.022-.358.015-.417-1.192-1.544-2.192-2.252-2.814 0 0-1.717-1.147-2.348-1.551-3.141-2.011-4.43-3.709-4.483-4.678.5-.602 2.497-1.204 3.374-5.068zm1.384-20.764c.549.47 1.057.661 1.525.576 0 0-.132.707-.289 1.256l-1.867 1.021c.237-1.073.537-2.376.631-2.853zm12.376 31.655zm-8.985-7.655c.368.838 1.577.733 1.682.236 0 0 1.709.314 2.187.217.705-.557-1.082-1.186-2.239-2.128 0 0-.368-2.015-.657-3.036.289-.104.893-.157 1.132-.105 2.514.664 4.344 3.32 5.132 5.609.243.709.16 1.548.469 2.229.628 1.4 2.563 4.34 3.072 6.586.009.042.013.08.021.121a1.364 1.364 0 01-.218-.468c-.195-.883-.531-1.587-.96-2.133h-.283c0-.286-.502-.489-.706-.703-.515 0 .221.767.336 1.137-.156-.441-1.397-.689-1.747-.962-.8 0 .788 1 .882 1.055l.204 1.405c0 1.031-.921 1.893-1.792 2.458h-.529c0-.977.87-1.575 1.411-2.283.402 0-.512-.313-.705-.351v-.351c.275 0 .247-.159.529-.527-.139 0-2.205.439-1.472-.143.099-.368-.215-.148.06-.56 0-.302-.281-.181-.529-.186-.491-.017-.86-.264-1.246-.275-.681-.028-1.219.791-1.585 1.406a2.538 2.538 0 00-.007.176c0 .236-.009.438-.022.623-1.192-3.288-2.869-7.198-2.869-7.198l-.733-1.786s.656-.063 1.182-.063zm11.934-21.435c.41.366-.132.811.755 1.865-.243 0-.524.252-.705.527-.891-.246-2.889-.979-2.889-.979-.237-.68-.591-1.685-.657-3.847.889 1.649 2.466 1.515 3.496 2.434zm-16.615 30.966l-1.808-.762c-1.428-.643-2.616-1.506-4.437-1.41-3.925.206-4.913 2.853-5.392 4.198 0 0-.21.945-.53 1.504-.24.514-.777.816-1.462.964-.171-1.231-.766-2.072-.958-2.501-1.18-2.624-.042-7.986 2.235-9.666 1.185-.883 4.416-2.094 5.378-3.689.281.61.579 1.181.596 1.933.01.972-.27 1.887-.481 2.594 1.315.864 3.287 2.302 4.747 3.806.905.931.829 1.639 1.694 2.135 1.051.604 1.787-.105 2.26 1.099a4.246 4.246 0 00-.017.763c-.186-.033-.301-.062-.313-.085-.541-.159-1.068-.645-1.512-.883zm-3.275-48.816s-1.711.805-2.138 1.126c-.605.455-1.914 1.728-1.914 1.728l1.213 1.212.551 1.071.767-.28 1.527.28c0 .433-.237.775-.435 1.302-2.497-1.283-4.925-1.735-7.159-2.154l-.583-1.458c.381-.589.566-1.087.5-1.283-.158-.732-.552-1.308-1.025-2.159-.25-.118-1.009-.011-1.009-.011l-.808-2.121c-.135-.329-1.049-.163-.825.381l.775 2.144c-.566.334-.879.442-.866 1.189.03 1.641.208 2.121.03 4.048-1.078.393-3.225 1.921-4.12 2.931-.56.634-2.207 2.183-3.18 3.178.947-.027 1.289 1.204 2.123 1.565l-.677 1.837c.947.026 1.92.878 1.92 1.125-.448.55-1 1.257-1.243 1.956 1.69.479 3.295 1.079 3.766 1.447l.473-.811c.62.332 1.63-.132 2.208.654.368-.314.581-.708.581-.708.681.08 1.101.237 1.39.525.575-.273 1.026-1.204 1.405-1.755 1.136-.548 3.341.421 3.898 1.332l.215.546s-1.548.06-3 .527c0 .505 1.588 2.986 1.588 2.986-2.16.473-4.211 1.493-5.645 2.81-3.008-3.698-6.098-3.631-8.175-1.131-1.979 2.382-1.233 5.023-1.433 8.168-.067 1.041-.366 2.613-.707 3.659.288-.104.709-.392.709-.392-.526 1.937-.473 3.952-.158 5.235.526-1.074 1.551-2.173 2.179-3.245l.177 1.406s1.64-2.637 1.94-3.864v2.283c.936-1.527 1.987-3.699 1.93-6.672-.023-1.218-.657-3.696.815-4.179.336-.116 1.213-.151 1.555.792-.342 1.073-.36 2.114-.355 3.203.011 2.633 1.122 3.89.776 5.172-.331 1.224-1.964 1.29-2.243 1.95-.242.577-.128 2.582-.544 5.43-.339 2.322-1.325 5.041-2.102 6.491l1.366.419a6.43 6.43 0 00-.597 3.084c-1.005-.29-1.821-.675-2.106-1.024-.711-.862-.05-2.053-.314-3.068-.121-.461-.276-1.048-.728-1.284-1.302-.778-1.938-.605-2.777-.403 1.562.383 1.945 1.61 1.912 2.378-.061 1.153-.662 1.999-.072 3.146 1.03 2.014 3.848 3.238 5.965 3.633 1.074.198 4.815.663 7.221-.625.612 0 2.283 1.223 2.646 1.756-.187 0-1.488.757-1.764 1.054 0 0 5.65-1.135 6.527 1.581.911-1.041 3.137-1.482 4.234-.121 2.565-1.47 4.564-.258 5.468-.055 0-.5 1.881-3.901 2.823-4.391.43 0 .601.395.953.516.469.159 1.153.006 1.555.346.359.296.595.905 1.048 1.037.893.258 1.51-.889 2.315-1.043.921-.181 1.511.505 2.393.379.711-.11 1.13-.895 1.846-1.098 1.048-.308 2.283-.192 3.297-.488 0-.961.391-2.119.529-3.162h-.353c0 .511-.7.666-1.014.94l-.184-.576c-.473 1.074-.667-.073-.684-.183-.263.602-.631.752-1.077.916 0-.323-.184-.916-.184-.916 0 .5-.819 1.023-1.183 1.1-.075 0-.105-.576-.158-.628-.263.523-.783.765-1.052.832-.482.156-1.173.117-1.811-.024a6.115 6.115 0 01-.372-.084c.144-.081.316-.184.498-.294 1.028.087 2.161.111 2.219.006a4.502 4.502 0 00-.318-1.219l.685-.451.572-.376c.217-.143.368.118.499.406.109-.068.185-.82.305-.865a.536.536 0 01.641.262c.263-.366.13-.871.316-.994.157 0 .315.052.467.156.135-.16.06-.675-.106-1.169l.177-.352c.424 0 .733.357 1.059.527 0 .286.104.176.353.176 0-.374-.276-.642-.497-.911-1.279-1.548-2.977 1.062-4.145 1.542a4.59 4.59 0 01-1.373.337c-.276-.447-.832-1.588-1.113-2.269l-1.394-4.266c-.303-1.043.079-2.382-.303-3.137-.887-1.753-1.563-4.087-1.721-5.997 2.655-.602 7.652-2.991 7.903-1.636.117.64-.385 2.316-.542 3.232-.606.076-.999.393-.999 1.413-.263.289-1.525-.314-1.525-.314-.368.786-1.134 2.425-1.312 3.716 1.098.149 1.92.225 2.416.132.684-.34 1.225-.627 1.84-1.256.883-1.413 1.341-3.377 1.963-5.492.62-2.106 1.586-3.224.902-4.611-.958-1.943-5.563.547-7.509.372.228-.895.341-1.559.33-2.459-.033-2.047-1.136-3.288-1.918-5.094 0-.515.49-1.279 1.058-1.756 0 1.636 4.371-.709 4.705-1.029.469-.451.542-.761.495-1.497-.545-2.407-1.578-5.283-1.971-6.648 0 0 .21-.105.421-.157l-1.004-2.086c.568 0 1.152-.483 2.117-.702 0-.5-2.845-.978-3.528-1.23 0-.521.689-1.109.882-1.581 0 0-.528.223-.893.202-.86-.047-1.386-1.513-2.033-2.018-.53-.414-1.182-.619-1.859-.742-.78-.14-2.62-.088-3.479.231.176.44.976 1.323.855 1.625-1.279 0-2.23.124-3.528.702.22.259.623.291.882.527-1.048 0-1.93.988-2.822 1.405.267.343.627.459.924.552 0 0-.867.497-1.445.785l.473.21c-.318.402-1.551.811-1.893 1.439-.292 0 .85.042 1.341.157-.413.463-.972 1.182-1.153 1.577.015.014.014.022-.012.022a.155.155 0 00.012-.022c-.086-.079-.74-.347-.74-.347-.42.288-1.179.507-1.565.545 0 0-.252-1.889-.616-2.743-.267-.624-1.104-1.571-1.709-2.042a12.77 12.77 0 001.548-1.857c.948-.433 2.166-.169 2.431-1.459.639-3.134-3.854-6.959-6.599-4.588z"/></g></g></svg>