<svg width="120" height="120" fill="none" xmlns="http://www.w3.org/2000/svg"><g id="sormovich 1"><g id="Layer 2"><g id="Layer 1"><path id="Vector" d="M27.253 47.028c0-1.368.08-2.736.237-4.095l-2.23 1.919a37.711 37.711 0 0015.18 32.461c.338-.597.693-1.188 1.075-1.768a35.654 35.654 0 01-14.262-28.517zm5.17 0c0-3.1.475-6.18 1.407-9.135l-.634.145-2.772 2.386A33.171 33.171 0 0043.019 73.54a27.25 27.25 0 011.773-1.978 30.486 30.486 0 01-12.37-24.535zm12.052 0a18.377 18.377 0 015.137-12.762l-5.862 1.338a22.322 22.322 0 008.168 30.85 26.578 26.578 0 015.239-1.892 18.49 18.49 0 01-12.682-17.534zm-6.367 0A24.67 24.67 0 0140.53 36.34l-3.928.897A28.075 28.075 0 0046.61 69.881a26.63 26.63 0 012.805-2.036 24.843 24.843 0 01-11.306-20.817zm-15.17 0v-.177l-1.44 1.24a41.375 41.375 0 0015.53 31.28l2.052-.247a39.985 39.985 0 01-16.142-32.096zm80.517-27.002L116.002 6.33l-15.374 10.446L35.12 20.58l20.172 1.977-25.62 5.91L5.624 50.07l27.814-16.03 70.017-14.014zm.962 27.002a41.21 41.21 0 00-7.41-23.6l-1.526.349a39.928 39.928 0 01-1.817 48.85l2.058-.242a41.266 41.266 0 008.695-25.357zm-87.39 31.3l16.164 5.315 4.782-.29c.257-.938.565-1.86.925-2.762l-6.75.596-15.12-2.858zm68.867-2.068a26.498 26.498 0 012.058 4.046l10.043-.613 14.691-12.982-16.41 8.598-10.382.95zM72.751 50.338a3.718 3.718 0 10-3.714 3.713 3.713 3.713 0 003.714-3.713zM90.886 24.83a35.642 35.642 0 01-3.933 48.598l3.347-.398a37.69 37.69 0 002.795-48.705l-2.209.505zm-6.05 39.818a6.948 6.948 0 002.762-4.111 28.044 28.044 0 00-5.191-33.767l-3.923.892a24.788 24.788 0 017.99 27.33 6.883 6.883 0 00-2.02-1.881 22.333 22.333 0 00-9.178-24.718l-5.84 1.332a18.453 18.453 0 0111.283 22.392h-.188a6.9 6.9 0 00-6.534 7.238 6.77 6.77 0 00.457 2.122 18.393 18.393 0 01-5.244 2.929 26.18 26.18 0 015.233 1.762 22.204 22.204 0 002.354-1.612c.75.55 1.604.943 2.51 1.156a24.912 24.912 0 01-2.317 1.794c.993.59 1.945 1.247 2.848 1.967a28.422 28.422 0 004.998-4.825zm11.284-17.62a33.068 33.068 0 00-7.99-21.575l-2.945.683a30.451 30.451 0 01-3.493 44.954c.65.616 1.267 1.265 1.849 1.946a33.137 33.137 0 0012.6-26.008h-.021zM85.067 85.502a22.067 22.067 0 00-26.298-16.921 22.107 22.107 0 00-16.921 26.298 22.224 22.224 0 0021.612 17.415 22.131 22.131 0 0021.628-26.835l-.021.043zM83.036 90.8a19.588 19.588 0 01-15.417 18.517c-.83.18-1.67.304-2.515.371V95.54l-1.639-2.015-1.612 2.015v14.175A19.524 19.524 0 0143.906 90.8h14.17v-1.262H43.91A19.544 19.544 0 0162.847 70.59v13.761h1.258v-13.73a19.51 19.51 0 0118.93 18.937H68.882V90.8h14.153z" fill="#fff"/></g></g></g></svg>