<svg width="48" height="48" fill="none" xmlns="http://www.w3.org/2000/svg"><g id="Group"><g id="Group_2" stroke="#fff" stroke-width="1.5" stroke-linecap="round" stroke-linejoin="round"><path id="Path" d="M16 10H6"/><path id="Path_2" fill-rule="evenodd" clip-rule="evenodd" d="M40 14H18a2 2 0 01-2-2V8a2 2 0 012-2h22a2 2 0 012 2v4a2 2 0 01-2 2z"/><path id="Path_3" d="M16 24H6"/><path id="Path_4" fill-rule="evenodd" clip-rule="evenodd" d="M40 28H18a2 2 0 01-2-2v-4a2 2 0 012-2h22a2 2 0 012 2v4a2 2 0 01-2 2z"/><path id="Path_5" fill-rule="evenodd" clip-rule="evenodd" d="M40 42H18a2 2 0 01-2-2v-4a2 2 0 012-2h22a2 2 0 012 2v4a2 2 0 01-2 2z"/><path id="Path_6" d="M16 38H8a2 2 0 01-2-2V6"/></g></g></svg>