<svg width="50" height="50" fill="none" xmlns="http://www.w3.org/2000/svg"><g id="Group" stroke="#fff" stroke-width="1.5" stroke-linecap="round" stroke-linejoin="round"><path id="Path" d="M12.994 20.998V10.994a4.002 4.002 0 014.002-4.002h22.009a4.002 4.002 0 014.002 4.002v28.012a4.002 4.002 0 01-4.002 4.001h-8.003"/><path id="Path_2" d="M20.998 14.996h14.006"/><path id="Path_3" d="M25 22.999h10.004"/><path id="Path_4" d="M35.004 31.002h-4.002"/><path id="Path_5" fill-rule="evenodd" clip-rule="evenodd" d="M10.876 42.958H8.11a1.119 1.119 0 01-1.119-1.119v0-8.768a1.118 1.118 0 011.119-1.118h2.765a1.138 1.138 0 011.12 1.156v8.804a1.105 1.105 0 01-1.12 1.045v0z"/><path id="Path_6" d="M11.994 34.324l3.698-6.037a2.701 2.701 0 015.002 1.4v3.202h3.021c.908 0 1.755.456 2.257 1.213a2.75 2.75 0 01.354 2.279l-1.465 5.126a2.017 2.017 0 01-1.936 1.46H15.76a2.51 2.51 0 01-1.601-.576l-2.165-1.8"/></g></svg>