<svg width="50" height="51" fill="none" xmlns="http://www.w3.org/2000/svg"><path d="M33.167 40.65v.382a3.11 3.11 0 01-3.11 3.11h-22.8a3.11 3.11 0 01-3.109-3.11V9.942a3.11 3.11 0 013.11-3.11h22.8a3.11 3.11 0 013.109 3.11v19.69m.001-10.364h2.678c.965 0 1.917.225 2.78.657l1.356.677a6.218 6.218 0 012.393 2.113l3.23 4.844" stroke="#017970" stroke-width="1.555" stroke-linecap="round" stroke-linejoin="round"/><path d="M33.168 29.632l.004-.006-4.93-5.225a3.148 3.148 0 00-4.515-.065v0a3.147 3.147 0 00-.396 3.968l6.192 9.314A8.29 8.29 0 0033.8 40.89l9.73 3.25m-7.253-14.508h-3.109m-22.801-1.036h4.146m-4.146 6.218h8.291m6.218-21.764l-6.218 6.218-4.145-2.073-4.146 4.146" stroke="#017970" stroke-width="1.555" stroke-linecap="round" stroke-linejoin="round"/></svg>