<svg width="48" height="48" fill="none" xmlns="http://www.w3.org/2000/svg"><g id="Group"><g id="Group_2" stroke="#fff" stroke-width="1.5" stroke-linecap="round" stroke-linejoin="round"><path id="Path" d="M36 16v-6c0-2.21-1.79-4-4-4H10c-2.21 0-4 1.79-4 4v28c0 2.21 1.79 4 4 4h6"/><path id="Path_2" fill-rule="evenodd" clip-rule="evenodd" d="M15 34v0c-1.656 0-3-1.344-3-3v0c0-1.656 1.344-3 3-3v0c1.656 0 3 1.344 3 3v0c0 1.656-1.344 3-3 3z"/><path id="Path_3" fill-rule="evenodd" clip-rule="evenodd" d="M42 39.172v-1.73a2 2 0 00-1.368-1.898L36 34v-4l1.394-.892a2.774 2.774 0 001.174-3.084v0A2.771 2.771 0 0035.898 24h-5.796a2.773 2.773 0 00-2.67 2.024v0a2.774 2.774 0 001.174 3.084L30 30v4l-4.632 1.544A1.998 1.998 0 0024 37.442v1.73c0 .53.21 1.04.586 1.414l.828.828c.376.376.884.586 1.414.586h12.344c.53 0 1.04-.21 1.414-.586l.828-.828c.376-.376.586-.884.586-1.414z"/><path id="Path_4" d="M12 14h16"/><path id="Path_5" d="M12 21h8"/></g></g></svg>