<svg width="48" height="48" fill="none" xmlns="http://www.w3.org/2000/svg"><g id="Group"><g id="Group_2" stroke="#fff" stroke-width="1.5" stroke-linecap="round" stroke-linejoin="round"><path id="Path" d="M11.9 26h13.8"/><path id="Path_2" d="M12 32h7.78"/><path id="Path_3" d="M19.786 42H9.94C7.764 42 6 40.21 6 38V10c0-2.21 1.764-4 3.94-4h20.12C32.236 6 34 7.79 34 10v12"/><path id="Path_4" fill-rule="evenodd" clip-rule="evenodd" d="M38.586 25.414L26 38v4h4l12.586-12.586a1.998 1.998 0 000-2.828l-1.172-1.172a2.001 2.001 0 00-2.828 0z"/><path id="Path_5" fill-rule="evenodd" clip-rule="evenodd" d="M15 18h-3v-6h3c1.656 0 3 1.344 3 3v0c0 1.656-1.344 3-3 3z"/></g></g></svg>