<svg width="48" height="48" fill="none" xmlns="http://www.w3.org/2000/svg"><g id="Group" stroke="#fff" stroke-width="1.5" stroke-linecap="round" stroke-linejoin="round"><path id="Path" d="M24 30h-3a3 3 0 01-3-3v-6a3 3 0 013-3h6a3 3 0 013 3v1"/><path id="Path_2" d="M22 37h-4.5a6.5 6.5 0 01-6.5-6.5v-13a6.5 6.5 0 016.5-6.5h13a6.5 6.5 0 016.5 6.5V20"/><path id="Path_3" d="M42 18h-5"/><path id="Path_4" d="M11 18H6"/><path id="Path_5" d="M11 24H6"/><path id="Path_6" d="M11 30H6"/><path id="Path_7" d="M18 6v5"/><path id="Path_8" d="M24 6v5"/><path id="Path_9" d="M30 6v5"/><path id="Path_10" d="M18 37v5"/><path id="Path_11" fill-rule="evenodd" clip-rule="evenodd" d="M37 31h3.497a1.5 1.5 0 011.248 2.332l-5.998 8.997A1.5 1.5 0 0133 41.497V37h-3.497a1.5 1.5 0 01-1.248-2.332l5.997-8.997a1.5 1.5 0 012.748.832V31z"/></g></svg>