<svg width="48" height="48" fill="none" xmlns="http://www.w3.org/2000/svg"><g id="Group"><g id="Group_2" stroke="#fff" stroke-width="1.5" stroke-linecap="round" stroke-linejoin="round"><path id="Path" d="M7.635 31.5h3.034c.708 0 1.386-.28 1.886-.78v0c.5-.5.78-1.178.78-1.886V18.166c0-.708-.28-1.386-.78-1.886v0c-.5-.5-1.178-.78-1.886-.78H8.13"/><path id="Path_2" d="M39.87 15.5h-2.536c-.708 0-1.386.28-1.886.78v0c-.5.5-.78 1.178-.78 1.886v10.668c0 .708.28 1.386.78 1.886v0c.5.5 1.178.78 1.886.78h3.034"/><path id="Path_3" d="M34.708 29.294h-1.72c-.572 0-1.138.122-1.658.36l-8.414 3.832"/><path id="Path_4" d="M21.29 17.336c-1.008-.586-2.226-.732-3.35-.328l-4.606 1.658"/><path id="Path_5" d="M34.988 16.872l-5.752-2.532a4.002 4.002 0 00-3.786.304l-5.22 3.382a3.011 3.011 0 00-.386 4.758v0a3.013 3.013 0 003.296.498l3.112-1.452"/><path id="Oval" fill-rule="evenodd" clip-rule="evenodd" d="M24 42c9.941 0 18-8.059 18-18S33.941 6 24 6 6 14.059 6 24s8.059 18 18 18z"/><path id="Path_6" d="M26.251 21.828l1.58 1.434a4.001 4.001 0 01.016 5.914l-4.034 3.692a3.997 3.997 0 01-5.386.014l-2.772-2.514c-.656-.594-1.492-.928-2.37-1"/></g></g></svg>