<svg width="231" height="250" viewBox="0 0 231 250" fill="none" xmlns="http://www.w3.org/2000/svg">
<g id="russian-gerb 2">
<g id="Group">
<path id="Fill-1" fill-rule="evenodd" clip-rule="evenodd" d="M141.971 165.353C141.971 172.194 139.016 175.481 132.986 175.481H123.884C119.088 175.481 115.778 179.027 114.546 183.247C113.314 179.027 110.004 175.481 105.208 175.481H96.1057C90.0763 175.481 87.1204 172.194 87.1204 165.353L87.1183 109.742H114.546H141.973L141.971 165.353ZM135.464 216.891C136.397 218.596 136.95 222.062 134.182 222.402C132.629 218.219 130.681 215.794 128.223 212.521C126.6 210.361 123.321 206.671 121.92 204.341C125.832 208.916 133.586 213.456 135.464 216.891ZM136.922 228.156C138.237 227.995 140.056 227.482 141.029 226.172C142.677 228.952 140.4 230.946 137.099 230.963C137.148 229.795 137.104 229.449 136.922 228.156ZM121.944 237.804C122.478 233.895 121.407 224.782 119.786 218.711C118.865 215.267 115.601 202.193 116.591 199.801C117.229 204.882 119.359 212.861 122.297 219.392C124.402 224.07 127.454 235.002 121.944 237.804ZM107.148 237.804C101.638 235.002 104.691 224.07 106.795 219.392C109.733 212.861 111.862 204.882 112.501 199.801C113.49 202.193 110.226 215.267 109.306 218.711C107.684 224.782 106.614 233.895 107.148 237.804ZM94.91 222.402C92.1413 222.062 92.6952 218.596 93.6277 216.891C95.506 213.456 103.26 208.916 107.172 204.341C105.771 206.671 102.491 210.361 100.869 212.521C98.4105 215.794 96.4628 218.219 94.91 222.402ZM91.9933 230.963C88.6922 230.946 86.4151 228.952 88.0625 226.172C89.0358 227.482 90.8548 227.995 92.1695 228.156C91.9878 229.449 91.9441 229.795 91.9933 230.963ZM61.0877 204.667C58.8435 205.025 54.7925 203.678 53.8335 200.551C52.8767 197.432 50.2649 196.47 48.3534 198.365C47.7423 197.994 46.2757 197.707 45.7193 198.633C45.7193 198.633 45.043 197.19 44.328 196.564C44.8327 194.939 44.3595 193.054 42.9401 192.426C42.7563 189.338 40.8897 189.286 40.2328 188.186C39.8429 187.535 39.911 186.797 40.8372 186.564C40.4166 186.04 39.6347 185.936 39.3916 185.936C39.7479 184.605 39.26 183.057 37.5251 182.428L24.2776 155.034C26.5122 155.263 30.0181 156.598 32.41 154.479C33.3218 153.671 44.492 139.773 46.0419 138.511C45.5363 139.686 38.4188 148.613 35.219 153.725C32.8083 157.577 36.191 160.043 36.67 162.373C39.178 161.568 42.6133 162.954 44.5122 159.91C46.3304 156.997 51.7197 146.467 53.7175 143.588C52.9289 145.787 47.2468 157.858 46.8729 158.94C45.5069 162.892 48.9321 163.616 50.3574 166.302C52.4784 164.943 56.2065 166.062 57.6364 162.195C58.6273 159.515 60.8652 150.446 62.0959 148.095C61.9436 150.684 61.1407 154.285 60.5641 158.391C60.0169 162.286 63.7925 162.264 65.9042 164.436C67.7308 162.83 71.1501 163.266 71.7457 159.619C72.2542 156.504 72.3538 148.776 72.3538 148.776C72.9317 149.176 73.2219 149.294 73.7476 149.817C75.1154 148.402 77.7877 148.403 78.742 146.494C79.0726 146.658 79.2943 146.912 79.6602 147.108C82.6324 152.068 82.8427 161.49 78.7441 164.919C79.9777 164.945 81.3707 164.762 82.3031 164.3C80.5081 168.149 76.4028 169.392 71.7339 167.631C71.8988 168.572 72.0245 169.098 72.4371 169.739C67.3338 170.494 65.1619 172.43 63.2743 175.703C60.8148 179.968 63.496 185.621 62.7457 187.808C62.2317 189.306 60.4913 190.602 57.7681 189.494C59.0942 195.215 66.3374 194.46 68.2561 191.319C68.9555 193.95 68.2944 197.028 66.917 198.209C69.1747 198.361 71.0542 197.39 72.26 195.702C72.5132 196.3 72.5814 196.876 72.6815 197.521C73.9062 196.943 74.6881 196.3 75.2554 195.526C75.4312 196.208 75.6289 197.724 75.3252 198.993C74.3158 199.619 73.235 200.186 71.6145 201.005C68.911 202.372 64.0314 204.198 61.0877 204.667ZM21.3853 147.462C21.3588 147.345 21.3344 147.222 21.3108 147.096C21.3731 146.92 21.4173 146.737 21.4475 146.549C21.9001 146.484 22.3753 146.397 22.8927 146.268C25.8481 145.533 30.6906 140.971 34.8439 138.249C33.477 139.662 27.3676 144.086 24.6906 146.645C22.1402 149.083 23.2981 151.55 23.6939 153.827L22.0776 150.485C22.9099 149.346 22.4367 147.881 21.3853 147.462ZM13.6125 143.474L12.273 142.694C12.7158 142.181 13.3135 142.191 13.8481 142.418C13.891 142.856 13.8123 143.208 13.6125 143.474ZM11.0478 138.004C10.9608 138.122 10.8687 138.234 10.7702 138.343C9.91899 138.178 9.9602 137.273 10.1129 136.515C10.454 136.458 10.724 136.376 11.0028 136.072C11.0651 136.07 11.2076 136.227 11.2076 136.227L10.7215 136.443C10.864 136.978 10.9532 137.487 11.0478 138.004ZM22.327 134.35C22.3274 134.269 22.3236 134.189 22.3198 134.109C23.0054 133.904 23.7183 133.674 24.4686 133.409C23.6871 133.734 22.9801 134.047 22.327 134.35ZM17.5248 135.15C17.5021 135.23 17.4676 135.313 17.4167 135.397C17.2695 135.397 17.1235 135.39 16.978 135.376C16.9372 135.323 16.8973 135.27 16.8569 135.218C17.0752 135.199 17.2972 135.177 17.5248 135.15ZM91.823 52.9045H91.8167C99.2021 51.3873 106.708 47.1637 110.079 43.8078C111.448 43.8861 112.937 43.9276 114.497 43.928C116.095 43.9276 117.616 43.8844 119.009 43.8036C122.378 47.1604 129.887 51.3869 137.276 52.9045H137.269C132.996 52.9045 125.483 52.5603 124.59 51.4979C124.747 54.183 130.53 57.2714 134.313 58.0561C131.213 58.3706 128.312 58.0373 125.903 56.9049C127.218 58.7894 128.729 60.327 131.24 61.1319C128.594 64.348 123.254 66.4016 117.896 65.8848C119.171 67.5193 121.551 68.474 123.748 68.2044C119.402 75.0021 115.449 82.5105 114.546 92.8279C113.643 82.5105 109.69 75.0021 105.344 68.2044C107.541 68.474 109.921 67.5193 111.196 65.8848C105.838 66.4016 100.497 64.348 97.8511 61.1319C100.362 60.327 101.874 58.7894 103.188 56.9049C100.78 58.0373 97.8785 58.3706 94.7788 58.0561C98.5619 57.2714 104.345 54.183 104.501 51.4979C103.609 52.5603 96.0956 52.9045 91.823 52.9045ZM228.564 103.799C225.638 101.981 220.957 101.544 216.384 101.846C223.681 99.4066 228.747 93.8672 229.092 88.9845C225.118 87.8526 221.111 88.407 217.617 89.2161C221.323 86.5209 227.168 81.6365 226.483 74.4849C223.003 73.6621 216.646 76.0444 213.855 77.1918C222.523 72.371 225.606 61.1436 221.033 54.6964C218.379 56.2261 206.144 68.7148 204.184 70.0959C210.416 62.8982 213.387 57.7885 215.151 52.9037C217.063 47.6072 217.262 38.4317 210.731 35.2797C207.665 42.376 196.776 60.5126 190.661 67.9916C190.104 67.4598 189.549 66.7178 188.77 66.5197C187.279 71.157 182.919 77.263 179.074 80.1172C178.875 79.7219 178.577 78.6327 177.799 77.6365C173.692 83.8103 162.974 92.1922 159.497 97.3153C156.869 101.189 156.764 104.748 160.532 108.339C162.031 109.767 164.965 112.495 162.441 116.16C158.395 122.036 149.403 121.813 146.789 116.761C152.501 116.114 154.252 109.082 150.664 105.004C149.15 107.755 145.886 108.991 142.56 107.637C140.468 106.776 138.866 105.649 137.979 104.654C142.587 106.216 146.626 103.435 146.086 98.6889C142.365 101.911 138.537 98.8124 137.803 97.9887C135.369 95.2554 134.733 92.1549 135.689 87.4631C136.524 83.3614 140.718 76.8551 143.594 74.6709C143.909 75.1428 144.567 75.9585 145.908 75.7094C146.79 75.5452 148.175 74.7651 149.079 74.4811C151.874 73.603 154.692 74.34 156.396 75.3827C159.624 77.3597 159.34 79.4657 159.295 81.1503C164.226 78.317 162.441 73.8124 156.08 72.0327C160.496 72.085 164.054 75.9778 164.936 76.5863C167.345 78.2479 170.838 77.8865 172.865 76.9372C176.741 75.121 177.635 70.6193 176.564 69.5703C176.163 71.1951 174.858 72.6394 172.689 72.9024C169.303 73.3082 166.082 71.8769 163.527 70.7973C161.44 69.9091 157.92 69.2584 155.502 69.4154C159.864 66.9409 166.752 67.2169 169.167 70.9715C170.59 69.7818 171.555 68.6976 171.984 66.2362C173.123 59.7835 168.146 56.4121 162.646 56.4121C162.704 54.8635 161.6 54.0783 160.179 54.4824C160.196 53.8819 159.992 53.376 159.609 53.1089C159.742 53.0988 159.873 53.0888 159.996 53.0791C165.489 52.6441 170.8 50.8915 173.57 47.9916C178.531 42.7948 170.691 36.098 173.483 30.8844C176.112 32.1847 178.122 33.6001 181.927 34.1851C182.261 34.92 182.578 36.523 182.732 37.2906C183.937 43.2111 178.108 44.1327 179.56 50.4477C180.208 53.2638 182.396 54.1369 183.084 57.4648C183.145 57.4648 183.418 59.9409 181.315 61.9322C186.099 61.9824 188.573 58.0733 187.045 54.2877C186.447 52.8057 184.785 51.304 184.846 49.5691C187.256 52.8744 189.389 52.6219 193.127 51.5C194.826 50.9899 194.984 53.3455 193.985 55.1775C196.509 53.7642 197.197 51.2425 197.179 50.0967C197.139 47.4828 195.164 46.3166 193.196 46.75C192.057 47.0013 189.779 48.425 189.603 46.2374C189.305 42.5314 195.092 42.7316 193.88 36.6997C193.249 33.559 189.884 32.041 184.732 31.3065C184.101 30.8371 182.873 29.5875 182.203 28.5193C179.16 23.6658 176.215 22.4619 174.451 23.4317C172.35 24.5863 171.323 25.4929 169.517 26.4142C168.201 27.0829 166.675 27.4296 165.817 28.5193C163.585 31.3551 165.634 35.7215 166.9 38.397C167.655 39.9812 169.552 43.6474 168.763 46.2194C167.782 49.415 162.475 51.4183 159.24 52.139C159.073 52.1759 158.884 52.2127 158.677 52.2479L158.672 51C159.645 49.3019 160.479 47.3166 161.137 45.5494C163.264 39.8409 160.07 37.4121 155.212 36.374C154.652 35.9879 153.985 35.8735 153.153 36.1311L153.04 36.1658L152.922 37.0067L152.276 36.9162L152.34 35.7613L152.188 35.7797C152.65 35.3266 152.937 34.696 152.937 33.9987C152.937 33.3953 152.722 32.8417 152.365 32.41H153.116L152.84 32.1022C152.652 31.8911 152.343 31.5565 152.067 31.206C151.921 31.0214 151.793 30.8417 151.695 30.6792C151.858 30.776 152.038 30.9045 152.223 31.0486C152.575 31.3237 152.911 31.6302 153.123 31.8178L153.431 32.0921V26.742L153.123 27.0163C152.911 27.2044 152.574 27.5113 152.222 27.7864C152.037 27.9309 151.856 28.0595 151.693 28.1566C151.791 27.9946 151.919 27.8153 152.064 27.6307C152.34 27.2806 152.648 26.946 152.837 26.7353L153.112 26.4276H147.739L148.014 26.7353C148.204 26.9472 148.512 27.2814 148.788 27.6311C148.935 27.8162 149.063 27.9966 149.161 28.1595C148.998 28.0624 148.817 27.9338 148.631 27.7889C148.28 27.5147 147.944 27.2081 147.732 27.0193L147.423 26.745V32.0955L147.732 31.8212C147.945 31.6323 148.281 31.3254 148.632 31.0507C148.818 30.9054 148.999 30.7768 149.162 30.6792C149.065 30.8421 148.936 31.0222 148.791 31.2069C148.515 31.5565 148.207 31.8903 148.017 32.1022L147.742 32.41H148.49C148.132 32.8417 147.917 33.3953 147.917 33.9987C147.917 34.6935 148.202 35.322 148.662 35.7751L148.548 35.7613L148.612 36.9162L147.965 37.0067L147.848 36.1658L147.735 36.1311C146.903 35.8735 146.236 35.9879 145.677 36.374C140.818 37.4121 137.624 39.8409 139.751 45.5494C140.41 47.3191 141.245 49.3078 142.22 51.0075L142.225 51.8011C137.418 50.2693 128.622 44.9795 126.325 41.7525C126.034 41.3735 125.814 41.1185 125.65 40.9456L125.685 37.464C127.48 34.7039 128.998 31.1528 130.152 28.0549C133.233 19.7835 128.673 16.2894 121.489 14.7676C120.724 14.2224 119.811 14.0456 118.624 14.4125L118.434 15.7621L116.949 15.5544L117.04 13.9125C116.746 13.9477 116.467 13.9761 116.201 13.9979C117.271 13.4129 117.995 12.281 117.995 10.9803C117.995 9.92169 117.515 8.97487 116.76 8.3438H117.916C117.347 7.7077 116.069 6.33961 115.885 5.51298C116.715 5.6964 118.091 6.9711 118.73 7.53811V0.810301C118.092 1.37688 116.717 2.64992 115.887 2.83291C116.071 2.00586 117.351 0.636097 117.921 0H111.164C111.73 0.633166 113.012 2.00837 113.195 2.83082C112.369 2.64824 110.986 1.37018 110.35 0.805695V7.5335C110.986 6.96943 112.367 5.69305 113.193 5.51089C113.01 6.33375 111.726 7.71022 111.159 8.3438H112.32C111.565 8.97487 111.085 9.92169 111.085 10.9803C111.085 12.2843 111.814 13.4192 112.888 14.0025C112.605 13.9803 112.306 13.9506 111.99 13.9125L112.081 15.5544L110.595 15.7621L110.406 14.4125C109.219 14.0456 108.305 14.2224 107.54 14.7676C100.357 16.2894 95.7966 19.7835 98.8778 28.0549C100.032 31.1528 101.55 34.7039 103.344 37.464L103.383 41.0096C103.225 41.1801 103.025 41.4167 102.767 41.7525C100.47 44.9799 91.6736 50.2693 86.8664 51.8011L86.8715 51.0075C87.8464 49.3078 88.6816 47.3191 89.3411 45.5494C91.4671 39.8409 88.2741 37.4121 83.4155 36.374C82.8557 35.9879 82.1891 35.8735 81.3568 36.1311L81.2445 36.1658L81.1263 37.0067L80.4799 36.9162L80.5438 35.7613L80.4303 35.7751C80.8899 35.322 81.1747 34.6935 81.1747 33.9987C81.1747 33.3953 80.9598 32.8417 80.6023 32.41H81.3496L81.0746 32.1022C80.8849 31.8903 80.577 31.5565 80.3016 31.2069C80.1556 31.0222 80.0269 30.8421 79.9293 30.6792C80.0929 30.7768 80.2742 30.9054 80.4601 31.0507C80.8113 31.3254 81.1469 31.6323 81.3597 31.8212L81.6689 32.0955V26.745L81.3597 27.0193C81.1469 27.2081 80.8117 27.5147 80.461 27.7889C80.2751 27.9338 80.0942 28.0624 79.931 28.1595C80.0286 27.9966 80.1577 27.8162 80.3037 27.6311C80.5796 27.2814 80.8878 26.9472 81.0775 26.7353L81.353 26.4276H75.9797L76.2551 26.7353C76.4436 26.946 76.7514 27.2806 77.0273 27.6307C77.1729 27.8153 77.3011 27.9946 77.3987 28.1566C77.2355 28.0595 77.0551 27.9309 76.8696 27.7864C76.5176 27.5113 76.1815 27.2044 75.9696 27.0163L75.6604 26.742V32.0921L75.9696 31.8178C76.1815 31.6302 76.5172 31.3237 76.8688 31.0486C77.0538 30.9045 77.2343 30.776 77.397 30.6792C77.2994 30.8417 77.1708 31.0214 77.0252 31.206C76.7489 31.5565 76.4406 31.8911 76.2518 32.1022L75.9763 32.41H76.727C76.3695 32.8417 76.1546 33.3953 76.1546 33.9987C76.1546 34.696 76.4415 35.3266 76.9041 35.7797L76.7519 35.7613L76.8158 36.9162L76.1693 37.0067L76.0512 36.1658L75.9389 36.1311C75.1065 35.8735 74.4395 35.9879 73.8801 36.374C69.0216 37.4121 65.8281 39.8409 67.9546 45.5494C68.6128 47.3166 69.4468 49.3019 70.42 51L70.4154 52.2479C70.2085 52.2127 70.0196 52.1759 69.8522 52.139C66.6167 51.4183 61.3102 49.415 60.329 46.2194C59.5391 43.6474 61.4372 39.9812 62.1918 38.397C63.4581 35.7215 65.5072 31.3551 63.2743 28.5193C62.4168 27.4296 60.8905 27.0829 59.5745 26.4142C57.7685 25.4929 56.7423 24.5863 54.6411 23.4317C52.8763 22.4619 49.9322 23.6658 46.8889 28.5193C46.2189 29.5875 44.9904 30.8371 44.36 31.3065C39.2074 32.041 35.8428 33.559 35.2119 36.6997C34.0002 42.7316 39.7874 42.5314 39.4888 46.2374C39.3126 48.425 37.0351 47.0013 35.8953 46.75C33.9283 46.3166 31.9524 47.4828 31.9124 50.0967C31.8952 51.2425 32.5833 53.7642 35.1072 55.1775C34.1079 53.3455 34.2656 50.9899 35.9652 51.5C39.702 52.6219 41.836 52.8744 44.246 49.5691C44.307 51.304 42.6444 52.8057 42.0463 54.2877C40.5184 58.0733 42.9926 61.9824 47.7768 61.9322C45.6739 59.9409 45.9472 57.4648 46.0078 57.4648C46.6959 54.1369 48.8841 53.2638 49.5314 50.4477C50.9837 44.1327 45.1544 43.2111 46.3602 37.2906C46.5146 36.523 46.8304 34.92 47.1644 34.1851C50.9702 33.6001 52.9798 32.1847 55.6092 30.8844C58.4006 36.098 50.561 42.7948 55.5222 47.9916C58.2917 50.8915 63.6024 52.6441 69.0956 53.0791C69.2188 53.0888 69.3496 53.0988 69.4825 53.1089C69.1002 53.376 68.8962 53.8819 68.9126 54.4824C67.4915 54.0783 66.3875 54.8635 66.4459 56.4121C60.9456 56.4121 55.968 59.7835 57.1078 66.2362C57.5372 68.6976 58.5016 69.7818 59.9248 70.9715C62.3394 67.2169 69.2277 66.9409 73.5899 69.4154C71.1716 69.2584 67.6517 69.9091 65.5652 70.7973C63.0102 71.8769 59.7894 73.3082 56.4029 72.9024C54.2339 72.6394 52.9289 71.1951 52.5276 69.5703C51.4568 70.6193 52.3506 75.121 56.2267 76.9372C58.2534 77.8865 61.7464 78.2479 64.1554 76.5863C65.0378 75.9778 68.5955 72.085 73.0116 72.0327C66.6503 73.8124 64.8658 78.317 69.7967 81.1503C69.7521 79.4657 69.4678 77.3597 72.6962 75.3827C74.3995 74.34 77.2174 73.603 80.0126 74.4811C80.9169 74.7651 82.3018 75.5452 83.1842 75.7094C84.525 75.9585 85.1824 75.1428 85.4974 74.6709C88.3742 76.8551 92.5678 83.3614 93.4031 87.4631C94.3586 92.1549 93.7231 95.2554 91.2888 97.9887C90.5553 98.8124 86.7276 101.911 83.0059 98.6889C82.4654 103.435 86.5047 106.216 91.113 104.654C90.2256 105.649 88.624 106.776 86.5316 107.637C83.2061 108.991 79.942 107.755 78.4279 105.004C74.8395 109.082 76.5903 116.114 82.3027 116.761C79.6883 121.813 70.6967 122.036 66.6503 116.16C64.1268 112.495 67.0608 109.767 68.5602 108.339C72.3282 104.748 72.223 101.189 69.5944 97.3153C66.1179 92.1922 55.3998 83.8103 51.2937 77.6365C50.5147 78.6327 50.2165 79.7219 50.018 80.1172C46.1727 77.263 41.8133 71.157 40.322 66.5197C39.5426 66.7178 38.9874 67.4598 38.4314 67.9916C32.3162 60.5126 21.4265 42.376 18.3605 35.2797C11.8297 38.4317 12.029 47.6072 13.941 52.9037C15.7049 57.7885 18.6755 62.8982 24.9077 70.0959C22.9477 68.7148 10.713 56.2261 8.05875 54.6964C3.4862 61.1436 6.56906 72.371 15.2368 77.1918C12.4463 76.0444 6.08917 73.6621 2.60886 74.4849C1.92458 81.6365 7.76897 86.5209 11.4747 89.2161C7.98095 88.407 3.97407 87.8526 0 88.9845C0.344456 93.8672 5.41078 99.4066 12.7079 101.846C8.13488 101.544 3.45339 101.981 0.527829 103.799C1.18604 108.827 6.81804 113.269 13.9132 114.286C9.2082 114.796 4.98683 116.888 2.90664 119.658C5.40279 122.925 9.18928 125.54 14.9306 125.417C13.549 125.881 12.0269 126.804 10.6899 128.041C10.5511 127.842 10.2937 127.756 10.0632 127.858C9.80248 127.974 9.68514 128.278 9.80122 128.538C9.82309 128.587 9.85211 128.631 9.88618 128.67C9.28307 129.077 8.97058 129.547 8.91001 130.049C8.36746 130.806 7.91155 131.624 7.58392 132.486C7.70925 132.585 7.83585 132.682 7.96328 132.778C7.92753 133.222 8.04151 133.714 8.37671 134.221C8.12773 134.508 7.9023 134.887 7.84468 135.327L4.47751 133.876C4.32904 134.451 4.10529 138.569 6.45003 141.013C7.7164 142.334 8.98487 142.144 8.63411 142.546L12.2486 144.854C12.9669 146.241 14.2682 146.151 15.1952 145.756C15.1863 145.853 15.1817 145.95 15.1817 146.049C15.1817 147.508 16.1806 148.734 17.534 149.087C17.2447 150.314 17.677 151.134 19.2794 151.613L33.0303 184.679C32.4255 186.197 33.0038 187.585 34.2656 188.131C33.8976 188.553 33.6612 188.841 33.6873 189.652C34.2235 189.34 34.9755 189.225 35.37 190.281C35.6657 191.071 34.213 193.526 36.3685 195.305C36.1582 196.823 36.8942 198.394 38.5029 198.979C38.5723 199.81 39.1956 202.376 39.3723 203.334C38.3637 204.615 36.0997 206.74 36.4211 209.02C36.641 210.58 37.3148 211.166 38.6417 211.594C38.0508 214.516 39.7331 215.877 42.3092 215.98C42.2041 218.18 44.3335 218.861 45.6478 219.018C46.7518 219.959 47.3562 220.379 48.7756 221.007C47.5139 222.629 48.4602 224.618 50.7734 225.299C51.0363 226.241 51.8249 227.079 53.1392 227.288C53.9278 228.597 55.3737 228.675 56.1358 228.283C56.744 227.969 57.6078 226.503 56.8193 225.142C57.345 224.514 57.0766 223.353 56.7048 222.52C57.5881 221.021 56.8445 219.262 55.8035 218.753C55.9432 217.948 55.5247 216.745 55.2934 215.915C57.0766 214.829 59.5194 213.33 60.3483 212.747C65.087 209.389 70.1975 206.562 76.314 206.052C77.8033 205.928 80.5177 205.847 82.1307 205.981C84.6647 206.191 87.9027 206.922 89.9871 205.386C90.5288 204.979 90.9179 204.399 90.8014 203.684C90.5583 202.192 88.8734 200.897 88.3532 199.539C88.2026 199.147 87.9448 198.546 87.7004 197.989C89.3886 198.312 91.0205 198.042 91.9933 197.631C93.0948 197.16 95.5388 195.273 95.5182 192.542C93.4699 193.495 88.5534 194.833 87.9431 189.806C87.4064 185.388 91.349 181.728 97.2792 183.246C101.532 184.335 107.52 193.219 102.036 196.93C99.2765 198.797 95.1948 200.555 95.691 205.35C97.4558 203.137 99.8687 202.108 103.004 202.386C98.4437 205.736 94.886 206.073 90.2849 208.683C86.1316 211.038 82.9983 215.045 79.8364 215.175C77.2818 215.279 75.9208 212.315 78.2491 210.086C75.832 209.631 72.6348 211.392 71.7318 213.946C70.5037 217.4 71.5257 219.984 73.6711 221.316C70.7245 222.879 68.511 226.003 69.6171 230.437C70.4953 233.954 74.2094 233.981 72.7887 238.504C74.7755 237.931 76.1529 236.604 76.6652 234.647C76.9899 233.375 77.1674 231.801 77.8975 231.138C77.6826 233.954 79.1845 238.017 83.0181 239.81C85.5567 240.997 89.551 241.567 92.6986 238.332C93.8712 241.999 98.1985 245.101 102.565 244.997C104.596 244.948 106.552 244.142 108.027 243.242C109.103 245.85 111.777 248.503 114.546 249.909C117.315 248.503 119.988 245.85 121.065 243.242C122.54 244.142 124.495 244.948 126.527 244.997C130.893 245.101 135.22 241.999 136.393 238.332C139.541 241.567 143.536 240.997 146.074 239.81C149.907 238.017 151.409 233.954 151.195 231.138C151.924 231.801 152.102 233.375 152.427 234.647C152.939 236.604 154.316 237.931 156.303 238.504C154.882 233.981 158.597 233.954 159.475 230.437C160.581 226.003 158.367 222.879 155.421 221.316C157.566 219.984 158.588 217.4 157.36 213.946C156.457 211.392 153.26 209.631 150.843 210.086C153.171 212.315 151.81 215.279 149.255 215.175C146.094 215.045 142.961 211.038 138.807 208.683C134.206 206.073 130.648 205.736 126.088 202.386C129.223 202.108 131.636 203.137 133.401 205.35C133.897 200.555 129.815 198.797 127.055 196.93C121.572 193.219 127.56 184.335 131.813 183.246C137.743 181.728 141.685 185.388 141.149 189.806C140.539 194.833 135.622 193.495 133.574 192.542C133.553 195.273 135.997 197.16 137.099 197.631C138.248 198.116 140.316 198.407 142.311 197.751C142.275 198.212 142.244 198.587 142.226 198.747C141.744 203.008 139.533 203.438 140.35 205.161C141.456 206.502 148.714 206.25 150.851 206.575C154.269 207.08 157.278 208.351 160.635 209.038C164.306 209.785 168.293 209.807 171.666 211.17C173.831 212.045 176.287 213.84 178.329 214.961C181.563 215.406 181.09 216.714 183.029 216.773C184.953 216.83 185.69 215.17 187.977 214.516C189.596 214.053 191.536 214.741 193.181 214.307C194.396 213.977 194.84 212.746 195.889 212.108C197.275 211.256 199.102 211.268 200.384 210.198C200.98 209.701 201.132 208.729 201.078 207.97C203.6 206.168 205.541 203.611 206.568 200.631C207.185 200.506 207.726 200.01 207.752 199.255C207.749 199.158 207.736 199.064 207.716 198.974C208.362 198.501 208.791 197.76 208.807 196.835C208.776 195.936 208.354 195.12 207.699 194.549C207.724 194.45 207.738 194.346 207.743 194.236C207.726 193.746 207.483 193.337 207.139 193.066C206.102 187.356 201.826 182.768 196.273 181.258C196.247 181.193 196.217 181.13 196.212 181.067L196.125 180.971C196.03 180.822 195.912 180.688 195.77 180.576C195.063 179.782 194.086 178.627 193.919 177.872C194.856 178.08 196.409 179.518 197.131 180.158V172.564C196.41 173.203 194.858 174.641 193.922 174.847C194.13 173.913 195.574 172.367 196.217 171.649H188.59C189.229 172.363 190.677 173.916 190.883 174.845C189.95 174.639 188.389 173.196 187.671 172.559V180.153C188.389 179.516 189.948 178.075 190.88 177.87C190.674 178.799 189.225 180.353 188.585 181.067L188.836 181.123C183.054 182.47 178.551 187.128 177.453 192.978C177.045 193.244 176.747 193.691 176.728 194.236C176.731 194.344 176.746 194.448 176.77 194.545C176.108 195.116 175.679 195.937 175.663 196.852C175.695 197.759 176.117 198.497 176.755 198.97C176.734 199.062 176.722 199.157 176.719 199.255C176.747 200.057 177.356 200.564 178.014 200.649C178.266 201.379 178.574 202.083 178.931 202.757C178.496 204.794 175.882 206.088 175.294 206.166C170.643 206.783 165.394 204.811 160.729 203.057C158.52 202.227 155.78 201.269 154.345 199.241C154.11 198.909 153.838 198.273 153.608 197.432C153.616 196.651 153.73 195.937 153.836 195.526C154.404 196.3 155.186 196.943 156.41 197.521C156.51 196.876 156.579 196.3 156.831 195.702C158.037 197.39 159.917 198.361 162.175 198.209C160.797 197.028 160.136 193.95 160.836 191.319C162.754 194.46 169.998 195.215 171.324 189.494C168.6 190.602 166.86 189.306 166.346 187.808C165.596 185.621 168.277 179.968 165.817 175.703C163.93 172.43 161.758 170.494 156.655 169.739C157.068 169.098 157.193 168.572 157.358 167.631C152.689 169.392 148.584 168.149 146.789 164.3C147.721 164.762 149.114 164.945 150.348 164.919C146.249 161.49 146.459 152.068 149.432 147.108C149.798 146.912 150.02 146.658 150.35 146.494C151.304 148.403 153.976 148.402 155.344 149.817C155.87 149.294 156.16 149.176 156.738 148.776C156.738 148.776 156.838 156.504 157.346 159.619C157.942 163.266 161.361 162.83 163.188 164.436C165.299 162.264 169.075 162.286 168.528 158.391C167.951 154.285 167.148 150.684 166.996 148.095C168.227 150.446 170.464 159.515 171.455 162.195C172.885 166.062 176.613 164.943 178.734 166.302C180.16 163.616 183.585 162.892 182.218 158.94C181.845 157.858 176.163 145.787 175.374 143.588C177.372 146.467 182.761 156.997 184.58 159.91C186.479 162.954 189.913 161.568 192.422 162.373C192.901 160.043 196.284 157.577 193.873 153.725C190.673 148.613 183.555 139.686 183.05 138.511C184.6 139.773 195.77 153.671 196.682 154.479C199.249 156.753 203.099 155.048 205.284 155.003C205.275 152.413 207.397 149.51 204.401 146.645C201.724 144.086 195.615 139.662 194.248 138.249C198.401 140.971 203.244 145.533 206.199 146.268C211.271 147.529 213.044 145.51 215.014 144.74C213.358 140.109 215.458 137.927 204.623 133.409C214.099 136.759 218.205 135.098 221.508 132.486C220.211 129.075 216.908 126.34 214.162 125.417C219.903 125.54 223.689 122.925 226.185 119.658C224.105 116.888 219.884 114.796 215.179 114.286C222.274 113.269 227.906 108.827 228.564 103.799Z" fill="#A3A5A7"/>
<path id="Fill-3" fill-rule="evenodd" clip-rule="evenodd" d="M115.236 150.324C115.236 150.023 116.064 150.018 116.329 149.925L116.504 150.352C117.093 151.785 116.244 153.207 116.853 153.755C117.327 153.873 117.56 153.768 117.912 153.781L118.666 155.618C118.666 155.618 120.56 160.475 122.121 163.812C122.091 163.856 122.059 163.895 122.026 163.929L122.116 164.552C121.879 164.552 121.939 164.606 121.763 164.376C121.763 164.593 121.544 164.546 121.303 164.42C121.288 164.438 121.154 164.442 120.945 164.435C120.528 163.243 119.401 162.243 118.693 161.621C118.693 161.621 116.976 160.474 116.345 160.07C113.204 158.059 111.915 156.361 111.862 155.392C112.362 154.79 114.359 154.188 115.236 150.324ZM116.62 129.56C117.169 130.03 117.677 130.221 118.145 130.136C118.145 130.136 118.013 130.843 117.856 131.392L115.989 132.413C116.226 131.34 116.526 130.037 116.62 129.56ZM128.996 161.215C128.996 161.184 128.99 161.154 128.98 161.126C128.99 161.158 128.997 161.189 128.996 161.215ZM120.011 153.56C120.379 154.398 121.588 154.293 121.693 153.796C121.693 153.796 123.402 154.11 123.88 154.013C124.585 153.456 122.798 152.827 121.641 151.885C121.641 151.885 121.273 149.87 120.984 148.849C121.273 148.745 121.877 148.692 122.116 148.744C124.63 149.408 126.46 152.064 127.248 154.353C127.491 155.062 127.408 155.901 127.717 156.582C128.345 157.982 130.28 160.922 130.789 163.168C130.798 163.21 130.802 163.248 130.81 163.289C130.701 163.131 130.625 162.971 130.592 162.821C130.397 161.938 130.061 161.234 129.632 160.688H129.349C129.349 160.402 128.847 160.199 128.643 159.985C128.128 159.985 128.864 160.752 128.979 161.122C128.823 160.681 127.582 160.433 127.232 160.16C126.432 160.16 128.02 161.16 128.114 161.215L128.318 162.62C128.318 163.651 127.397 164.513 126.526 165.078H125.997C125.997 164.101 126.867 163.503 127.408 162.795C127.81 162.795 126.896 162.482 126.703 162.444V162.093C126.978 162.093 126.95 161.934 127.232 161.566C127.093 161.566 125.027 162.005 125.76 161.423C125.859 161.055 125.545 161.275 125.82 160.863C125.82 160.561 125.539 160.682 125.291 160.677C124.8 160.66 124.431 160.413 124.045 160.402C123.364 160.374 122.826 161.193 122.46 161.808C122.456 161.866 122.453 161.924 122.453 161.984C122.453 162.22 122.444 162.422 122.431 162.607C121.239 159.319 119.562 155.409 119.562 155.409L118.829 153.623C118.829 153.623 119.485 153.56 120.011 153.56ZM131.945 132.125C132.355 132.491 131.813 132.936 132.7 133.99C132.457 133.99 132.176 134.242 131.995 134.517C131.104 134.271 129.106 133.538 129.106 133.538C128.869 132.858 128.515 131.853 128.449 129.691C129.338 131.34 130.915 131.206 131.945 132.125ZM115.33 163.091L113.522 162.329C112.094 161.686 110.906 160.823 109.085 160.919C105.16 161.125 104.172 163.772 103.693 165.117C103.693 165.117 103.483 166.062 103.163 166.621C102.923 167.135 102.386 167.437 101.701 167.585C101.53 166.354 100.935 165.513 100.743 165.084C99.5633 162.46 100.701 157.098 102.978 155.418C104.163 154.535 107.394 153.324 108.356 151.729C108.637 152.339 108.935 152.91 108.952 153.662C108.962 154.634 108.682 155.549 108.471 156.256C109.786 157.12 111.758 158.558 113.218 160.062C114.123 160.993 114.047 161.701 114.912 162.197C115.963 162.801 116.699 162.092 117.172 163.296C117.141 163.592 117.139 163.823 117.155 164.059C116.969 164.026 116.854 163.997 116.842 163.974C116.301 163.815 115.774 163.329 115.33 163.091ZM112.055 114.275C112.055 114.275 110.344 115.08 109.917 115.401C109.312 115.856 108.003 117.129 108.003 117.129L109.216 118.341L109.767 119.412L110.534 119.132L112.061 119.412C112.061 119.845 111.824 120.187 111.626 120.714C109.129 119.431 106.701 118.979 104.467 118.56L103.884 117.102C104.265 116.513 104.45 116.015 104.384 115.819C104.226 115.087 103.832 114.511 103.359 113.66C103.109 113.542 102.35 113.649 102.35 113.649L101.542 111.528C101.407 111.199 100.493 111.365 100.717 111.909L101.492 114.053C100.926 114.387 100.613 114.495 100.626 115.242C100.656 116.883 100.834 117.363 100.656 119.29C99.5781 119.683 97.431 121.211 96.5368 122.221C95.9766 122.855 94.3292 124.404 93.3568 125.399C94.3031 125.372 94.6446 126.603 95.4787 126.964L94.8024 128.801C95.7487 128.827 96.7215 129.679 96.7215 129.926C96.2744 130.476 95.7226 131.183 95.4787 131.882C97.1681 132.361 98.7743 132.961 99.245 133.329L99.7181 132.518C100.338 132.85 101.348 132.386 101.926 133.172C102.294 132.858 102.507 132.464 102.507 132.464C103.188 132.544 103.608 132.701 103.897 132.989C104.472 132.716 104.923 131.785 105.302 131.234C106.438 130.686 108.643 131.655 109.2 132.566L109.415 133.112C109.415 133.112 107.867 133.172 106.415 133.639C106.415 134.144 108.003 136.625 108.003 136.625C105.843 137.098 103.792 138.118 102.358 139.435C99.3501 135.737 96.2601 135.804 94.1828 138.304C92.204 140.686 92.9505 143.327 92.7499 146.472C92.6835 147.513 92.384 149.085 92.0425 150.131C92.3314 150.027 92.752 149.739 92.752 149.739C92.2263 151.676 92.2789 153.691 92.5943 154.974C93.12 153.9 94.1454 152.801 94.7729 151.729L94.9496 153.135C94.9496 153.135 96.5898 150.498 96.8897 149.271V151.554C97.8255 150.027 98.8769 147.855 98.8197 144.882C98.7966 143.664 98.1632 141.186 99.6353 140.703C99.9713 140.587 100.848 140.552 101.19 141.495C100.848 142.568 100.83 143.609 100.835 144.698C100.846 147.331 101.957 148.588 101.611 149.87C101.28 151.094 99.6466 151.16 99.3682 151.82C99.1255 152.397 99.2403 154.402 98.8244 157.25C98.485 159.572 97.4991 162.291 96.7215 163.741L98.0884 164.16C97.4415 165.55 97.4688 166.722 97.4907 167.244C96.4859 166.954 95.67 166.569 95.3849 166.22C94.6737 165.358 95.3352 164.167 95.0707 163.152C94.9496 162.691 94.7948 162.104 94.3431 161.868C93.0414 161.09 92.405 161.263 91.5664 161.465C93.1284 161.848 93.5108 163.075 93.4775 163.843C93.417 164.996 92.816 165.842 93.406 166.989C94.4364 169.003 97.2539 170.227 99.3707 170.622C100.445 170.82 104.186 171.285 106.592 169.997C107.204 169.997 108.875 171.22 109.238 171.753C109.051 171.753 107.75 172.51 107.474 172.807C107.474 172.807 113.124 171.672 114.001 174.388C114.912 173.347 117.138 172.906 118.235 174.267C120.8 172.797 122.799 174.009 123.703 174.212C123.703 173.712 125.584 170.311 126.526 169.821C126.956 169.821 127.127 170.216 127.479 170.337C127.948 170.496 128.632 170.343 129.034 170.683C129.393 170.979 129.629 171.588 130.082 171.72C130.975 171.978 131.592 170.831 132.397 170.677C133.318 170.496 133.908 171.182 134.79 171.056C135.501 170.946 135.92 170.161 136.636 169.958C137.684 169.65 138.919 169.766 139.933 169.47C139.933 168.509 140.324 167.351 140.462 166.308H140.109C140.109 166.819 139.409 166.974 139.095 167.248L138.911 166.672C138.438 167.746 138.244 166.599 138.227 166.489C137.964 167.091 137.596 167.241 137.15 167.405C137.15 167.082 136.966 166.489 136.966 166.489C136.966 166.989 136.147 167.512 135.783 167.589C135.708 167.589 135.678 167.013 135.625 166.961C135.362 167.484 134.842 167.726 134.573 167.793C134.091 167.949 133.4 167.91 132.762 167.769C132.636 167.745 132.511 167.716 132.39 167.685C132.534 167.604 132.706 167.501 132.888 167.391C133.916 167.478 135.049 167.502 135.107 167.397C135.057 166.94 134.935 166.536 134.789 166.178C135.03 166.02 135.263 165.867 135.474 165.727L136.046 165.351C136.263 165.208 136.414 165.469 136.545 165.757C136.654 165.689 136.73 164.937 136.85 164.892C136.995 164.837 137.308 164.84 137.491 165.154C137.754 164.788 137.621 164.283 137.807 164.16C137.964 164.16 138.122 164.212 138.274 164.316C138.409 164.156 138.334 163.641 138.168 163.147L138.345 162.795C138.769 162.795 139.078 163.152 139.404 163.322C139.404 163.608 139.508 163.498 139.757 163.498C139.757 163.124 139.481 162.856 139.26 162.587C137.981 161.039 136.283 163.649 135.115 164.129C134.632 164.327 134.172 164.431 133.742 164.466C133.466 164.019 132.91 162.878 132.629 162.197L131.235 157.931C130.932 156.888 131.314 155.549 130.932 154.794C130.045 153.041 129.369 150.707 129.211 148.797C131.866 148.195 136.863 145.806 137.114 147.161C137.231 147.801 136.729 149.477 136.572 150.393C135.966 150.469 135.573 150.786 135.573 151.806C135.31 152.095 134.048 151.492 134.048 151.492C133.68 152.278 132.914 153.917 132.736 155.208C133.834 155.357 134.656 155.433 135.152 155.34C135.836 155 136.377 154.713 136.992 154.084C137.875 152.671 138.333 150.707 138.955 148.592C139.575 146.486 140.541 145.368 139.857 143.981C138.899 142.038 134.294 144.528 132.348 144.353C132.576 143.458 132.689 142.794 132.678 141.894C132.645 139.847 131.542 138.606 130.76 136.8C130.76 136.285 131.25 135.521 131.818 135.044C131.818 136.68 136.189 134.335 136.523 134.015C136.992 133.564 137.065 133.254 137.018 132.518C136.473 130.111 135.44 127.235 135.047 125.87C135.047 125.87 135.257 125.765 135.468 125.713L134.464 123.627C135.032 123.627 135.616 123.144 136.581 122.925C136.581 122.425 133.736 121.947 133.053 121.695C133.053 121.174 133.742 120.586 133.935 120.114C133.935 120.114 133.407 120.337 133.042 120.316C132.182 120.269 131.656 118.803 131.009 118.298C130.479 117.884 129.827 117.679 129.15 117.556C128.37 117.416 126.53 117.468 125.671 117.787C125.847 118.227 126.647 119.11 126.526 119.412C125.247 119.412 124.296 119.536 122.998 120.114C123.218 120.373 123.621 120.405 123.88 120.641C122.832 120.641 121.95 121.629 121.058 122.046C121.325 122.389 121.685 122.505 121.982 122.598C121.982 122.598 121.115 123.095 120.537 123.383L121.01 123.593C120.692 123.995 119.459 124.404 119.117 125.032C118.825 125.032 119.967 125.074 120.458 125.189C120.045 125.652 119.486 126.371 119.305 126.766C119.32 126.78 119.319 126.788 119.293 126.788C119.297 126.782 119.302 126.773 119.305 126.766C119.219 126.687 118.565 126.419 118.565 126.419C118.145 126.707 117.386 126.926 117 126.964C117 126.964 116.748 125.075 116.384 124.221C116.117 123.597 115.28 122.65 114.675 122.179C115.297 121.552 115.813 120.933 116.223 120.322C117.171 119.889 118.389 120.153 118.654 118.863C119.293 115.729 114.8 111.904 112.055 114.275Z" fill="#A3A5A7"/>
</g>
</g>
</svg>
