<svg width="120" height="120" viewBox="0 0 120 120" fill="none" xmlns="http://www.w3.org/2000/svg">
<g id="sormovich 1">
<g id="Layer 2">
<g id="Layer 1">
<path id="Vector" d="M27.2533 47.0279C27.2531 45.6596 27.3321 44.2925 27.4897 42.9333L25.2597 44.8516C25.2167 45.5681 25.1952 46.2935 25.1952 47.0279C25.1958 52.9156 26.5748 58.7213 29.2221 63.9803C31.8693 69.2392 35.7111 73.8053 40.4398 77.3129C40.7784 76.7164 41.133 76.1253 41.5145 75.545C37.0873 72.2246 33.4938 67.9191 31.0185 62.9695C28.5432 58.0198 27.2541 52.562 27.2533 47.0279ZM32.4226 47.0279C32.4228 43.9289 32.8976 40.8482 33.8304 37.893L33.1964 38.0381L30.4236 40.4239C29.1779 46.57 29.7 52.9434 31.9293 58.8049C34.1586 64.6664 38.0039 69.7758 43.0191 73.5407C43.5779 72.8529 44.169 72.1937 44.7924 71.5632C40.9541 68.7271 37.8353 65.0295 35.6869 60.768C33.5384 56.5066 32.4203 51.8003 32.4226 47.0279ZM44.4753 47.0279C44.4708 42.2692 46.3123 37.6943 49.6124 34.2659L43.7499 35.6039C42.2278 38.1572 41.2311 40.9888 40.8181 43.9325C40.4052 46.8763 40.5844 49.8728 41.3452 52.7464C42.106 55.6199 43.4331 58.3126 45.2486 60.6663C47.0641 63.02 49.3315 64.9874 51.9176 66.4531C53.5929 65.6408 55.3489 65.0069 57.1567 64.5616C53.4692 63.3414 50.2596 60.9909 47.9833 57.8436C45.707 54.6963 44.4796 50.9121 44.4753 47.0279ZM38.1077 47.0279C38.104 43.3286 38.9322 39.6759 40.5312 36.34L36.6032 37.2374C34.4511 43.0218 34.265 49.3542 36.0737 55.255C37.8823 61.1558 41.5848 66.2963 46.6086 69.8813C47.4984 69.1423 48.4353 68.462 49.4136 67.8448C45.9448 65.5907 43.0939 62.506 41.1195 58.8708C39.1452 55.2355 38.1099 51.1647 38.1077 47.0279ZM22.9384 47.0279V46.8506L21.4983 48.0919C21.6501 54.1224 23.1187 60.0468 25.8013 65.45C28.4839 70.8532 32.3155 75.6045 37.0277 79.3709L39.0803 79.1237C34.0725 75.4039 30.0045 70.564 27.2016 64.9909C24.3987 59.4178 22.9387 53.2661 22.9384 47.0279ZM103.455 20.0261L116.002 6.3291L100.628 16.7752L35.1201 20.5796L55.2921 22.557L29.6714 28.4679L5.625 50.0693L33.4382 34.0402L103.455 20.0261ZM104.417 47.0279C104.422 38.5879 101.835 30.3499 97.0065 23.4275L95.4805 23.7768C100.634 30.9696 103.251 39.6704 102.923 48.5125C102.594 57.3546 99.3373 65.837 93.6642 72.6272L95.7223 72.3854C101.362 65.1361 104.421 56.2125 104.417 47.0279ZM17.0275 78.3285L33.191 83.6428L37.9734 83.3527C38.2296 82.4155 38.5382 81.4934 38.8976 80.5907L32.1485 81.1872L17.0275 78.3285ZM85.8942 76.2597C86.6947 77.5471 87.3832 78.9008 87.9522 80.3059L97.9953 79.6933L112.686 66.711L96.2757 75.3086L85.8942 76.2597ZM72.7506 50.338C72.7517 49.6021 72.5344 48.8824 72.1262 48.2701C71.718 47.6578 71.1373 47.1803 70.4576 46.8982C69.778 46.6161 69.0299 46.542 68.308 46.6853C67.5862 46.8286 66.9232 47.1829 66.4028 47.7033C65.8825 48.2236 65.5282 48.8867 65.3849 49.6085C65.2416 50.3303 65.3157 51.0784 65.5978 51.7581C65.8799 52.4377 66.3573 53.0184 66.9697 53.4266C67.582 53.8348 68.3016 54.0521 69.0375 54.051C70.0223 54.051 70.9667 53.6598 71.6631 52.9635C72.3594 52.2672 72.7506 51.3227 72.7506 50.338ZM90.8861 24.83C96.5269 31.9145 99.2596 40.8804 98.529 49.9067C97.7984 58.933 93.6594 67.3428 86.9527 73.4278L90.3004 73.0302C96.4643 66.5607 100.129 58.1117 100.641 49.1906C101.153 40.2696 98.4782 31.4569 93.0946 24.3249L90.8861 24.83ZM84.8356 64.6476C86.2299 63.6631 87.2131 62.1998 87.5976 60.5368C90.5723 55.1226 91.676 48.8776 90.7374 42.7717C89.7988 36.6658 86.8703 31.0407 82.4068 26.7698L78.4841 27.6618C82.4632 30.8438 85.3651 35.1747 86.7949 40.0649C88.2246 44.9551 88.1127 50.1671 86.4745 54.9914C85.9349 54.2345 85.2476 53.5947 84.4541 53.1107C85.7456 48.5498 85.5523 43.6964 83.9024 39.2526C82.2524 34.8089 79.2312 31.0054 75.2761 28.3926L69.4352 29.7253C73.7907 31.3499 77.3726 34.5586 79.4647 38.7099C81.5568 42.8612 82.0049 47.6492 80.7195 52.1166H80.5314C78.7055 52.2111 76.9918 53.0265 75.7666 54.3836C74.5415 55.7407 73.9051 57.5287 73.9973 59.3547C74.0343 60.0821 74.1886 60.7989 74.454 61.4772C72.8781 62.7342 71.1063 63.7236 69.2095 64.4058C71.0113 64.8072 72.7657 65.398 74.4433 66.1683C75.2615 65.6819 76.0477 65.1435 76.7968 64.5562C77.547 65.1063 78.4006 65.4992 79.3063 65.7115C78.5702 66.3547 77.7968 66.954 76.9903 67.5063C77.9834 68.096 78.9349 68.7531 79.8382 69.473C81.6951 68.0749 83.3734 66.4543 84.8356 64.6476ZM96.1199 47.0279C96.1246 39.1118 93.2895 31.4567 88.1295 25.4533L85.1849 26.1358C88.098 29.225 90.3328 32.8893 91.7459 36.8934C93.159 40.8975 93.719 45.1529 93.3901 49.3863C93.0612 53.6196 91.8506 57.7374 89.836 61.4752C87.8214 65.213 85.0474 68.4882 81.6921 71.0904C82.3423 71.7056 82.9593 72.3549 83.5406 73.0356C87.4687 69.9336 90.6431 65.9821 92.8254 61.4777C95.0078 56.9733 96.1415 52.0331 96.1414 47.0279H96.1199ZM85.0666 85.5021C84.4562 82.6615 83.2909 79.9694 81.6375 77.5803C79.9841 75.1912 77.8753 73.1521 75.4319 71.5799C72.9886 70.0078 70.2589 68.9336 67.3994 68.4189C64.5399 67.9043 61.6069 67.9594 58.7688 68.581C55.9306 69.196 53.2415 70.3641 50.8549 72.0187C48.4683 73.6733 46.4312 75.782 44.8598 78.2241C43.2884 80.6663 42.2136 83.3941 41.6968 86.2518C41.1799 89.1095 41.2312 92.041 41.8477 94.8788C42.9391 99.8034 45.6733 104.21 49.6009 107.375C53.5285 110.54 58.4158 112.275 63.4599 112.294C65.0423 112.292 66.6201 112.123 68.167 111.789C73.9022 110.541 78.9068 107.066 82.08 102.128C85.2533 97.1905 86.3353 91.1945 85.0881 85.4591L85.0666 85.5021ZM83.0355 90.8003C82.8967 95.1634 81.3044 99.3551 78.5114 102.71C75.7183 106.065 71.8846 108.39 67.6189 109.317C66.7899 109.497 65.9498 109.621 65.1041 109.688V95.5397L63.4652 93.5247L61.8532 95.5397V109.715C57.0567 109.328 52.5722 107.183 49.26 103.692C45.9477 100.201 44.0411 95.6105 43.9057 90.8003H58.0756V89.5376H43.9111C44.0607 84.5617 46.1035 79.8306 49.6225 76.3095C53.1415 72.7885 57.8715 70.7431 62.8473 70.5906V84.3521H64.1047V70.6229C69.0802 70.7688 73.8118 72.8109 77.331 76.3311C80.8502 79.8514 82.8909 84.5835 83.0355 89.5591H68.8817V90.8003H83.0355Z" fill="white"/>
</g>
</g>
</g>
</svg>
