<svg width="50" height="50" viewBox="0 0 50 50" fill="none" xmlns="http://www.w3.org/2000/svg">
<g id="Group">
<path id="Path" d="M12.9941 20.9983V10.9941C12.9941 8.78404 14.7857 6.99243 16.9958 6.99243H39.005C41.215 6.99243 43.0066 8.78404 43.0066 10.9941V39.0058C43.0066 41.2158 41.215 43.0074 39.005 43.0074H31.0016" stroke="white" stroke-width="1.5" stroke-linecap="round" stroke-linejoin="round"/>
<path id="Path_2" d="M20.998 14.9958H35.0039" stroke="white" stroke-width="1.5" stroke-linecap="round" stroke-linejoin="round"/>
<path id="Path_3" d="M25 22.999H35.0042" stroke="white" stroke-width="1.5" stroke-linecap="round" stroke-linejoin="round"/>
<path id="Path_4" d="M35.0036 31.0024H31.002" stroke="white" stroke-width="1.5" stroke-linecap="round" stroke-linejoin="round"/>
<path id="Path_5" fill-rule="evenodd" clip-rule="evenodd" d="M10.8758 42.9575H8.11065C7.81402 42.9575 7.52953 42.8396 7.31978 42.6299C7.11003 42.4201 6.99219 42.1356 6.99219 41.839V41.839V33.0713C6.99219 32.7747 7.11003 32.4902 7.31978 32.2805C7.52953 32.0707 7.81402 31.9529 8.11065 31.9529H10.8758C11.1778 31.9576 11.4655 32.0821 11.6756 32.299C11.8857 32.5159 12.0011 32.8074 11.9963 33.1094V41.913C11.9641 42.5057 11.4693 42.9669 10.8758 42.9575V42.9575Z" stroke="white" stroke-width="1.5" stroke-linecap="round" stroke-linejoin="round"/>
<path id="Path_6" d="M11.9941 34.3239L15.6917 28.2873C16.3234 27.26 17.5596 26.7758 18.721 27.101C19.8824 27.4262 20.6874 28.4819 20.6938 29.6879V32.8893H23.715C24.623 32.8897 25.4704 33.3449 25.972 34.1018C26.4183 34.7728 26.5478 35.6059 26.3261 36.3807L24.8615 41.5068C24.6136 42.371 23.8237 42.9666 22.9247 42.9675H15.7597C15.1754 42.9675 14.6094 42.7635 14.159 42.3912L11.9941 40.5905" stroke="white" stroke-width="1.5" stroke-linecap="round" stroke-linejoin="round"/>
</g>
</svg>
