<svg width="48" height="48" viewBox="0 0 48 48" fill="none" xmlns="http://www.w3.org/2000/svg">
<g id="Group">
<g id="Group_2">
<path id="Path" d="M36 16V10C36 7.79 34.21 6 32 6H10C7.79 6 6 7.79 6 10V38C6 40.21 7.79 42 10 42H16" stroke="white" stroke-width="1.5" stroke-linecap="round" stroke-linejoin="round"/>
<path id="Path_2" fill-rule="evenodd" clip-rule="evenodd" d="M15 34V34C13.344 34 12 32.656 12 31V31C12 29.344 13.344 28 15 28V28C16.656 28 18 29.344 18 31V31C18 32.656 16.656 34 15 34Z" stroke="white" stroke-width="1.5" stroke-linecap="round" stroke-linejoin="round"/>
<path id="Path_3" fill-rule="evenodd" clip-rule="evenodd" d="M42 39.172V37.442C42 36.582 41.45 35.816 40.632 35.544L36 34V30L37.394 29.108C38.42 28.45 38.898 27.198 38.568 26.024V26.024C38.232 24.826 37.142 24 35.898 24H30.102C28.86 24 27.768 24.826 27.432 26.024V26.024C27.102 27.198 27.58 28.45 28.606 29.108L30 30V34L25.368 35.544C24.55 35.816 24 36.58 24 37.442V39.172C24 39.702 24.21 40.212 24.586 40.586L25.414 41.414C25.79 41.79 26.298 42 26.828 42H39.172C39.702 42 40.212 41.79 40.586 41.414L41.414 40.586C41.79 40.21 42 39.702 42 39.172Z" stroke="white" stroke-width="1.5" stroke-linecap="round" stroke-linejoin="round"/>
<path id="Path_4" d="M12 14H28" stroke="white" stroke-width="1.5" stroke-linecap="round" stroke-linejoin="round"/>
<path id="Path_5" d="M12 21H20" stroke="white" stroke-width="1.5" stroke-linecap="round" stroke-linejoin="round"/>
</g>
</g>
</svg>
