<svg width="50" height="51" viewBox="0 0 50 51" fill="none" xmlns="http://www.w3.org/2000/svg">
<path d="M33.1666 40.6506V41.032C33.1666 42.7491 31.7746 44.1411 30.0575 44.1411H7.25753C5.54043 44.1411 4.14844 42.7491 4.14844 41.032V9.94112C4.14844 8.22402 5.54043 6.83203 7.25753 6.83203H30.0575C31.7746 6.83203 33.1666 8.22402 33.1666 9.94112V29.632" stroke="#017970" stroke-width="1.55455" stroke-linecap="round" stroke-linejoin="round"/>
<path d="M33.168 19.2683H35.8455C36.8108 19.2683 37.7629 19.4931 38.6263 19.9248L39.9819 20.6025C40.9498 21.0865 41.7747 21.8146 42.3749 22.715L45.6043 27.5592" stroke="#017970" stroke-width="1.55455" stroke-linecap="round" stroke-linejoin="round"/>
<path d="M33.1683 29.632L33.1722 29.6258L28.2413 24.401C27.6575 23.7824 26.8482 23.4265 25.9978 23.4141C25.1473 23.4018 24.3281 23.7343 23.7266 24.3357V24.3357C22.6668 25.3955 22.5013 27.0557 23.3311 28.3038L29.5226 37.6175C30.5445 39.1547 32.0502 40.3069 33.801 40.8915L43.5319 44.1411" stroke="#017970" stroke-width="1.55455" stroke-linecap="round" stroke-linejoin="round"/>
<path d="M36.2771 29.6321H33.168" stroke="#017970" stroke-width="1.55455" stroke-linecap="round" stroke-linejoin="round"/>
<path d="M10.3672 28.5957H14.5126" stroke="#017970" stroke-width="1.55455" stroke-linecap="round" stroke-linejoin="round"/>
<path d="M10.3672 34.8137H18.6581" stroke="#017970" stroke-width="1.55455" stroke-linecap="round" stroke-linejoin="round"/>
<path d="M24.8763 13.05L18.6581 19.2682L14.5126 17.1955L10.3672 21.341" stroke="#017970" stroke-width="1.55455" stroke-linecap="round" stroke-linejoin="round"/>
</svg>
