<svg width="48" height="48" viewBox="0 0 48 48" fill="none" xmlns="http://www.w3.org/2000/svg">
<g id="Group">
<g id="Group_2">
<path id="Path" d="M7.63477 31.5H10.6688C11.3768 31.5 12.0548 31.22 12.5548 30.72V30.72C13.0548 30.22 13.3348 29.542 13.3348 28.834V18.166C13.3348 17.458 13.0548 16.78 12.5548 16.28V16.28C12.0548 15.78 11.3768 15.5 10.6688 15.5H8.13077" stroke="white" stroke-width="1.5" stroke-linecap="round" stroke-linejoin="round"/>
<path id="Path_2" d="M39.87 15.5H37.334C36.626 15.5 35.948 15.78 35.448 16.28V16.28C34.948 16.78 34.668 17.458 34.668 18.166V28.834C34.668 29.542 34.948 30.22 35.448 30.72V30.72C35.948 31.22 36.626 31.5 37.334 31.5H40.368" stroke="white" stroke-width="1.5" stroke-linecap="round" stroke-linejoin="round"/>
<path id="Path_3" d="M34.708 29.2939H32.988C32.416 29.2939 31.85 29.4159 31.33 29.6539L22.916 33.4859" stroke="white" stroke-width="1.5" stroke-linecap="round" stroke-linejoin="round"/>
<path id="Path_4" d="M21.29 17.3361C20.282 16.7501 19.064 16.6041 17.94 17.0081L13.334 18.6661" stroke="white" stroke-width="1.5" stroke-linecap="round" stroke-linejoin="round"/>
<path id="Path_5" d="M34.9879 16.8721L29.2359 14.3401C28.0039 13.7981 26.5799 13.9121 25.4499 14.6441L20.2299 18.0261C18.5699 19.1001 18.3799 21.4561 19.8439 22.7841V22.7841C20.7419 23.5981 22.0419 23.794 23.1399 23.282L26.2519 21.8301" stroke="white" stroke-width="1.5" stroke-linecap="round" stroke-linejoin="round"/>
<path id="Oval" fill-rule="evenodd" clip-rule="evenodd" d="M24 42C33.9411 42 42 33.9411 42 24C42 14.0589 33.9411 6 24 6C14.0589 6 6 14.0589 6 24C6 33.9411 14.0589 42 24 42Z" stroke="white" stroke-width="1.5" stroke-linecap="round" stroke-linejoin="round"/>
<path id="Path_6" d="M26.2512 21.8279L27.8312 23.2619C29.5772 24.8439 29.5832 27.5839 27.8472 29.1759L23.8132 32.8679C22.2912 34.2639 19.9552 34.2679 18.4272 32.8819L15.6552 30.3679C14.9992 29.7739 14.1632 29.4399 13.2852 29.3679" stroke="white" stroke-width="1.5" stroke-linecap="round" stroke-linejoin="round"/>
</g>
</g>
</svg>
